<?xml version="1.0" standalone="no"?>
<!DOCTYPE svg PUBLIC "-//W3C//DTD SVG 20010904//EN"
 "http://www.w3.org/TR/2001/REC-SVG-20010904/DTD/svg10.dtd">
<svg version="1.0" xmlns="http://www.w3.org/2000/svg"
 width="480.000000pt" height="480.000000pt" viewBox="0 0 480.000000 480.000000"
 preserveAspectRatio="xMidYMid meet">
<metadata>
Created by potrace 1.11, written by Peter Selinger 2001-2013
</metadata>
<g transform="translate(0.000000,480.000000) scale(0.100000,-0.100000)"
fill="#000000" stroke="none">
<path d="M2075 4734 c-397 -54 -793 -212 -1100 -439 l-74 -55 17 -30 c18 -32
32 -39 32 -15 0 8 4 15 9 15 5 0 11 8 13 18 2 12 13 17 38 17 28 0 35 4 40 25
3 14 12 25 20 26 29 2 50 16 50 34 0 28 19 34 41 14 16 -15 22 -16 29 -5 6 11
15 11 38 3 23 -8 33 -7 45 5 17 17 37 10 37 -13 0 -8 -9 -23 -20 -34 -20 -20
-20 -20 3 -17 18 2 23 -4 25 -33 l4 -34 18 23 c12 17 23 22 35 17 15 -5 17
-14 11 -53 -3 -26 -10 -51 -16 -57 -6 -6 -5 -16 1 -28 12 -23 5 -48 -14 -48
-7 0 -19 10 -26 23 -7 13 -27 29 -44 37 -18 7 -35 15 -40 18 -4 2 -4 -3 -1
-12 3 -9 15 -16 25 -16 10 0 19 -4 19 -10 0 -5 -9 -10 -19 -10 -22 0 -56 43
-64 80 -3 15 -5 9 -3 -13 2 -32 -3 -42 -25 -57 -14 -11 -29 -16 -33 -13 -4 4
-4 0 -1 -9 4 -10 14 -14 26 -11 15 4 19 0 19 -20 0 -14 -7 -27 -15 -31 -8 -3
-15 -11 -15 -19 0 -19 -55 -20 -71 -1 -11 14 -11 18 4 29 9 7 17 22 17 33 0
11 5 24 10 27 7 4 7 12 0 25 -16 29 -12 48 10 55 15 5 19 12 15 26 -8 24 23
39 36 18 6 -9 7 -4 3 16 -4 17 -11 32 -16 33 -4 2 -8 14 -8 27 0 13 -4 27 -10
30 -13 8 -13 -21 1 -47 13 -24 -4 -41 -33 -34 -16 4 -16 2 -3 -17 17 -25 19
-37 5 -37 -5 0 -10 7 -10 15 0 8 -4 15 -9 15 -4 0 -13 15 -19 33 -9 30 -10 31
-11 6 -1 -15 6 -32 14 -39 8 -7 15 -22 15 -34 -1 -21 -1 -21 -20 2 -10 12 -20
28 -23 35 -2 6 -8 9 -12 4 -5 -4 2 -19 16 -33 l24 -26 -35 7 c-31 7 -33 6 -21
-9 7 -9 23 -16 35 -16 14 0 17 -3 8 -8 -7 -5 -29 -7 -50 -5 -20 1 -32 -1 -25
-5 6 -4 15 -21 18 -37 7 -29 7 -29 -8 -10 -16 20 -16 20 -17 -1 0 -27 -25 -48
-45 -40 -20 7 -19 -3 2 -26 15 -17 15 -18 0 -18 -9 0 -23 14 -32 30 -9 17 -18
30 -21 30 -2 0 0 -9 6 -19 5 -11 6 -22 1 -25 -4 -3 -6 -18 -3 -33 l5 -28 -24
20 c-18 16 -21 16 -10 2 8 -9 11 -21 7 -25 -4 -4 -14 1 -21 11 -9 12 -15 14
-20 7 -4 -6 -14 -10 -23 -9 -31 3 -43 -1 -37 -11 10 -15 -21 -12 -34 4 -8 9
-8 16 -2 20 10 7 9 111 -1 121 -5 6 -139 -138 -216 -232 -24 -29 -74 -98 -112
-154 -54 -80 -66 -104 -57 -114 14 -15 28 0 20 24 -4 14 -3 14 6 1 13 -19 22
-9 26 32 1 18 6 41 10 51 9 21 53 23 62 2 8 -23 -7 -33 -18 -12 -15 26 -32 21
-25 -8 4 -15 2 -25 -4 -25 -6 0 -8 -5 -5 -11 5 -6 12 -4 20 8 7 10 17 14 21
10 5 -4 4 -11 -1 -15 -6 -4 -10 -13 -11 -19 -3 -32 -5 -34 -24 -12 -22 27 -25
22 -10 -17 9 -22 15 -26 38 -21 22 5 28 2 29 -13 1 -13 -3 -17 -13 -13 -17 6
-18 -9 -2 -25 10 -10 10 -14 0 -21 -10 -6 -9 -11 5 -22 10 -7 15 -10 11 -5 -3
4 0 19 7 33 9 18 11 32 5 44 -11 20 10 32 36 22 12 -4 10 3 -7 30 -27 41 -39
46 -39 17 0 -12 7 -20 17 -20 13 0 14 -3 5 -12 -16 -16 -44 9 -40 36 2 16 10
21 31 21 16 -1 27 5 27 12 0 22 26 26 59 8 31 -16 43 -32 17 -22 -8 3 -17 -1
-20 -9 -9 -22 23 -29 38 -9 18 24 48 12 46 -17 -3 -37 -1 -41 14 -29 8 7 20
11 28 11 23 -3 58 12 58 25 0 24 -12 45 -26 45 -8 0 -14 -6 -14 -12 0 -7 -4
-19 -9 -27 -8 -12 -12 -12 -25 -2 -33 27 -8 85 27 64 8 -4 8 -1 -1 9 -7 9 -22
13 -37 10 -24 -4 -30 3 -26 34 1 6 -6 17 -14 24 -13 11 -14 10 -9 -4 5 -12 2
-15 -12 -10 -18 5 -18 5 -2 -9 28 -22 21 -30 -19 -22 l-38 7 20 -22 c19 -22
19 -22 1 -19 -11 2 -30 23 -43 47 -24 43 -23 68 3 58 8 -3 14 -1 14 4 0 6 7
10 16 10 11 0 14 6 9 20 -4 14 -2 20 8 20 8 0 17 10 20 21 4 16 11 20 26 16
13 -3 18 -1 14 9 -9 24 8 37 27 19 16 -15 18 -15 24 0 4 11 13 14 25 10 11 -3
39 -1 62 5 31 9 44 9 49 0 4 -6 14 -8 23 -4 26 9 32 -23 13 -63 -16 -33 -19
-35 -54 -28 -29 5 -34 4 -25 -5 6 -7 23 -12 37 -12 14 0 26 -4 26 -9 0 -5 8
-9 18 -9 14 0 15 2 2 10 -8 5 -11 12 -7 16 10 11 36 -16 30 -32 -6 -16 -34
-19 -49 -4 -15 15 -41 3 -47 -21 -4 -13 0 -19 11 -19 12 0 13 -3 5 -11 -9 -9
-18 -8 -37 5 -26 16 -35 36 -16 36 5 0 7 7 3 16 -4 12 -8 11 -18 -8 -8 -15 -9
-29 -3 -41 5 -10 7 -21 4 -24 -7 -7 19 -33 33 -33 5 0 14 -6 18 -14 20 -33 79
-96 90 -96 14 0 17 -28 7 -54 -5 -13 -9 -14 -21 -4 -17 14 -55 19 -47 6 3 -4
14 -8 25 -8 24 0 16 -18 -15 -30 l-21 -9 21 0 c12 -1 37 -7 55 -14 31 -12 203
-16 214 -5 5 5 -27 112 -45 150 -11 23 -15 25 -32 15 -15 -10 -20 -9 -28 3
-10 17 14 49 27 36 4 -4 1 -12 -7 -17 -12 -8 -11 -10 5 -8 36 3 42 -1 55 -31
7 -16 16 -28 20 -25 5 3 16 -17 25 -45 13 -41 38 -71 131 -164 63 -63 114
-117 114 -120 0 -14 -85 57 -133 111 -29 32 -67 72 -84 90 -30 31 -30 32 -25
7 l5 -26 -79 2 c-44 1 -91 2 -106 1 -27 -1 -27 -2 -10 -19 14 -15 21 -16 37
-7 11 7 54 12 96 11 l76 -1 71 -66 c39 -36 76 -78 81 -92 8 -21 18 -27 58 -32
51 -7 137 -34 130 -41 -2 -3 -15 -1 -28 4 -13 5 -51 13 -84 17 -58 7 -95 26
-95 49 0 6 -33 45 -74 85 -72 71 -76 74 -103 62 -19 -8 -38 -8 -62 -1 -36 10
-43 8 -76 -20 -20 -18 -130 -36 -120 -20 3 4 -1 11 -7 13 -7 3 1 6 17 8 17 1
35 3 40 4 6 2 18 3 28 4 29 2 10 18 -30 26 -55 10 -93 33 -93 55 0 10 5 22 10
25 8 5 7 12 -1 22 -10 11 -10 19 -1 34 14 22 0 26 -18 4 -7 -8 -22 -16 -34
-16 -17 -1 -17 -2 -4 -6 19 -5 25 -23 7 -23 -6 0 -1 -12 10 -26 12 -15 21 -31
21 -35 0 -12 -47 -11 -55 1 -8 13 -35 13 -35 -1 0 -6 9 -13 20 -16 21 -6 28
-23 8 -23 -6 0 -8 -3 -5 -7 4 -3 -3 -17 -15 -30 -16 -17 -24 -20 -35 -12 -7 6
-13 17 -13 24 0 9 -8 11 -22 7 -12 -3 -17 -7 -10 -10 15 -5 16 -52 1 -52 -5 0
-7 -5 -4 -11 5 -6 12 -4 20 7 23 32 45 10 46 -48 1 -29 3 -45 6 -35 5 18 23
24 23 6 0 -5 5 -7 11 -4 7 5 9 -3 7 -21 -3 -29 -28 -47 -28 -20 0 23 -17 20
-23 -4 -6 -22 -37 -18 -37 5 0 7 -7 18 -15 25 -20 16 -19 40 1 40 10 0 14 -6
10 -15 -8 -21 7 -19 21 4 10 16 9 20 -3 25 -26 10 -54 7 -52 -6 2 -7 -11 -12
-30 -14 -19 -1 -39 -7 -45 -13 -16 -16 -47 -14 -47 3 0 8 7 16 15 20 8 3 15 1
15 -4 0 -6 5 -10 10 -10 6 0 10 6 10 14 0 16 -27 29 -41 20 -17 -10 -41 17
-29 31 8 10 6 15 -9 20 -26 8 -35 35 -16 54 12 12 18 13 27 3 9 -9 8 -12 -6
-12 -10 0 -16 -6 -13 -12 2 -7 14 -13 26 -12 11 0 21 -3 21 -8 0 -4 -4 -8 -8
-8 -4 0 -8 -9 -9 -20 -2 -26 13 -26 20 1 3 12 10 18 16 15 14 -9 19 26 7 46
-8 14 -6 21 9 31 18 14 18 15 -4 22 -25 8 -49 -14 -29 -26 7 -4 7 -9 0 -13 -6
-3 -17 2 -24 12 -14 20 -68 38 -68 23 0 -5 10 -11 23 -14 19 -3 20 -4 4 -11
-21 -10 -53 12 -38 27 7 7 5 20 -5 39 -9 17 -18 27 -21 24 -3 -3 -1 -12 5 -19
14 -17 6 -27 -16 -20 -13 3 -13 1 2 -11 18 -14 18 -16 3 -16 -20 0 -36 32 -19
38 13 4 5 32 -10 32 -5 0 -6 -4 -3 -10 3 -5 -1 -10 -9 -10 -19 0 -21 11 -4 28
7 7 8 12 4 12 -5 0 -4 6 2 13 6 7 7 18 2 26 -10 18 -145 -254 -190 -384 -329
-953 -9 -1983 807 -2598 24 -18 -79 218 -109 249 -27 29 -29 35 -22 80 4 27
10 58 14 69 5 14 0 35 -16 65 -13 25 -23 37 -24 28 0 -10 -4 -18 -8 -18 -5 0
-25 -33 -45 -73 -20 -40 -48 -84 -63 -97 -27 -24 -27 -24 3 15 17 22 39 62 48
88 10 27 27 59 37 72 19 24 19 25 -8 65 -15 22 -29 38 -31 36 -3 -3 7 -21 22
-41 15 -19 25 -38 22 -41 -3 -3 -53 62 -112 145 l-108 150 -51 -35 c-28 -19
-58 -34 -66 -34 -8 0 -28 -7 -44 -15 -30 -16 -30 -16 -11 5 10 11 24 20 31 20
10 0 122 55 132 65 2 1 -40 63 -93 137 l-96 134 -62 -9 c-34 -4 -75 -12 -92
-17 l-30 -9 22 18 c18 15 46 21 120 25 54 3 127 13 163 21 77 17 113 15 159
-8 33 -16 34 -16 52 7 26 33 73 53 154 66 88 13 203 45 275 75 30 13 78 30
105 38 28 8 67 22 87 31 21 9 45 16 55 16 10 -1 -4 -9 -32 -19 -27 -10 -84
-32 -125 -49 -41 -16 -93 -37 -115 -45 -66 -25 -185 -56 -260 -67 -70 -10
-115 -26 -115 -41 0 -4 14 -15 31 -23 27 -14 33 -14 43 -2 21 27 112 59 216
76 58 10 116 23 130 28 120 49 224 87 292 108 79 23 153 53 287 116 36 16 60
23 53 16 -6 -8 -35 -25 -64 -37 -29 -13 -87 -38 -128 -57 -41 -18 -129 -49
-195 -70 -66 -20 -140 -47 -165 -59 -25 -13 -64 -28 -88 -34 -48 -13 -166
-123 -138 -129 8 -2 25 3 38 11 13 8 38 18 56 22 19 4 60 23 93 42 32 19 63
33 69 31 15 -5 -82 -66 -149 -94 -55 -23 -52 -28 17 -24 18 1 44 -6 58 -15 22
-14 27 -14 46 0 13 8 32 15 43 15 31 0 133 52 201 103 34 25 75 52 90 60 16 9
56 38 88 66 33 28 62 48 66 46 4 -3 22 3 40 11 38 19 74 73 126 189 21 46 41
82 45 79 11 -6 28 28 44 89 7 29 17 61 20 72 l7 20 -17 -20 c-9 -11 -43 -73
-76 -137 -68 -135 -91 -156 -204 -187 -39 -10 -116 -35 -173 -55 -57 -21 -111
-35 -120 -33 -14 4 -13 5 3 6 20 1 98 28 215 73 36 14 85 33 110 42 25 9 50
20 55 24 18 13 64 86 86 137 12 28 35 70 52 94 17 25 24 42 16 39 -76 -28
-301 -99 -304 -96 -2 2 70 28 161 58 l166 55 39 81 c21 44 39 87 39 95 0 8 16
48 36 89 34 70 36 81 35 165 -1 78 -5 97 -30 145 l-28 55 -104 6 -104 5 97 2
96 2 -31 55 -32 54 -73 1 c-57 0 -92 7 -165 34 -51 19 -110 37 -132 41 -22 4
-48 11 -57 16 -24 13 -56 78 -69 141 -6 29 -19 67 -29 84 -10 17 -21 45 -24
61 -6 24 -14 30 -51 39 -40 9 -43 8 -34 -7 5 -10 12 -19 17 -21 24 -10 50 -68
55 -126 6 -68 33 -112 69 -112 10 0 18 -5 18 -11 0 -6 -14 -9 -32 -7 -26 2
-36 10 -48 35 -12 25 -20 31 -36 27 -17 -4 -29 3 -50 31 -16 20 -41 43 -56 51
-15 8 -36 31 -47 52 -10 20 -31 48 -46 62 -31 29 -55 71 -55 97 1 13 6 9 17
-12 9 -16 33 -49 54 -72 22 -24 39 -47 39 -53 0 -8 124 -140 132 -140 2 0 2
31 1 68 -2 59 -7 76 -37 123 -38 59 -58 81 -105 117 -17 13 -31 28 -31 34 0
10 46 -24 103 -76 18 -16 52 -37 77 -47 24 -9 48 -23 52 -30 27 -51 59 -133
67 -170 15 -76 38 -118 69 -125 75 -17 105 -26 159 -51 46 -21 79 -28 158 -32
87 -5 101 -9 110 -26 5 -12 26 -41 46 -65 94 -115 89 -98 89 -329 0 -113 -5
-224 -10 -246 -6 -22 -11 -150 -11 -285 -1 -219 -3 -249 -19 -280 -23 -43 -25
-36 -5 21 14 37 15 75 8 239 -6 173 -8 187 -15 125 -10 -82 -27 -110 -21 -33
5 52 29 217 39 268 4 20 3 22 -5 9 -6 -9 -17 -59 -26 -110 -41 -255 -59 -345
-71 -359 -7 -8 -22 -37 -34 -64 -11 -27 -23 -47 -25 -44 -7 7 15 69 35 98 15
22 65 239 56 247 -4 4 -46 -139 -56 -192 -5 -28 -8 -33 -9 -14 0 14 15 86 34
159 19 74 33 136 30 138 -4 4 -43 -120 -65 -208 -7 -25 -20 -61 -29 -80 -10
-19 -30 -61 -45 -94 -15 -32 -44 -78 -64 -103 -20 -24 -37 -48 -37 -53 0 -12
-83 -71 -107 -75 -21 -4 -56 -34 -180 -152 -43 -40 -72 -73 -65 -73 21 0 100
62 166 130 60 62 61 63 20 11 -51 -61 -86 -99 -118 -124 -28 -23 -19 -37 25
-37 29 0 34 4 34 23 1 27 14 51 58 103 19 23 30 31 27 19 -5 -14 3 -9 25 15
25 28 29 30 19 10 -19 -41 -41 -62 -50 -49 -4 7 -7 2 -7 -12 1 -13 -3 -39 -7
-56 -6 -25 -4 -33 6 -33 25 0 38 15 64 73 17 39 50 84 103 138 42 43 90 101
105 127 16 26 26 37 22 25 -10 -35 -107 -197 -144 -239 -32 -37 -32 -37 -9 -4
14 19 35 55 47 80 l23 45 -41 -45 c-48 -53 -86 -114 -95 -152 -6 -27 6 -39 19
-18 3 5 14 10 24 10 11 0 26 18 41 50 13 28 27 50 31 50 19 0 82 106 123 210
53 131 105 241 106 223 1 -31 -59 -248 -66 -240 -3 3 2 29 10 58 25 83 17 101
-10 24 -52 -145 -68 -179 -114 -234 -26 -31 -53 -66 -59 -79 -23 -43 20 -9 73
57 46 57 56 67 56 57 0 -2 -25 -36 -55 -75 -30 -39 -55 -73 -55 -75 0 -2 6 -6
14 -9 17 -7 59 57 128 191 40 77 53 117 69 204 11 62 17 126 13 150 -4 37 -3
40 7 23 10 -15 10 -43 0 -135 -12 -112 -30 -172 -69 -228 -10 -15 -26 -47 -36
-72 -10 -25 -29 -63 -43 -85 -14 -22 -20 -35 -13 -28 7 6 19 9 26 6 8 -3 14 0
14 5 0 6 9 14 20 17 11 3 20 12 20 20 0 7 9 23 20 36 l20 24 -10 -28 c-5 -16
-10 -32 -10 -38 0 -12 58 -5 72 9 16 16 33 15 48 -3 7 -9 15 -13 18 -10 3 3
11 0 18 -6 24 -20 31 0 32 107 1 59 4 109 7 112 3 3 5 -21 5 -54 l0 -59 43 3
42 4 0 126 c0 98 -4 139 -19 180 -25 73 -13 77 15 5 20 -50 22 -73 20 -175 -1
-79 2 -119 10 -123 8 -6 10 27 7 126 -5 124 -7 139 -37 207 -18 40 -31 81 -29
90 2 10 12 -7 22 -36 10 -29 20 -51 22 -49 6 6 -49 199 -75 266 -12 29 -19 56
-17 59 3 2 10 -6 15 -19 5 -13 15 -40 23 -59 16 -38 59 -188 83 -290 8 -36 22
-90 31 -120 8 -32 13 -71 9 -94 -5 -35 6 -66 24 -66 10 0 -16 251 -32 305 -40
136 -54 199 -49 218 4 17 9 12 24 -28 19 -53 17 -35 -7 55 -8 30 -15 76 -15
103 0 65 -20 189 -32 205 -7 8 -7 12 0 12 16 0 29 -28 37 -80 24 -160 87 -290
206 -425 88 -99 140 -186 153 -255 5 -23 -5 -9 -27 41 -29 66 -112 199 -124
199 -5 0 -5 -1 41 -78 27 -45 40 -81 47 -130 5 -37 12 -74 15 -84 6 -21 33
-31 50 -18 7 6 26 13 43 15 16 2 43 11 59 19 16 8 32 12 36 9 3 -4 6 -2 6 4 0
7 10 9 23 5 19 -5 19 -3 -8 21 -18 15 -34 22 -39 16 -12 -11 -65 61 -108 146
-17 33 -43 74 -57 91 -14 17 -65 76 -112 130 -47 54 -89 106 -94 114 -10 19
-18 27 112 -116 108 -119 168 -193 229 -283 17 -25 48 -61 67 -80 20 -19 34
-38 31 -43 -3 -4 4 -8 15 -8 11 0 23 4 26 10 3 5 15 10 26 10 12 0 19 4 17 10
-1 5 -87 96 -189 202 -103 106 -195 202 -205 213 -11 12 -15 15 -10 8 16 -24
-10 -14 -37 15 -42 44 -159 281 -152 309 3 15 -8 49 -36 104 -78 156 -66 229
61 363 95 102 107 119 115 179 7 47 33 90 95 156 28 30 33 44 39 110 8 80 19
111 54 149 11 12 15 22 9 22 -6 0 -19 -13 -29 -30 -36 -61 -46 -29 -33 105 14
145 28 232 40 256 16 29 23 18 10 -15 -5 -15 -10 -47 -10 -71 0 -24 -5 -56
-11 -72 -6 -15 -12 -67 -14 -115 l-4 -87 45 42 c36 35 47 55 64 117 24 84 24
84 14 158 -4 36 -3 52 5 52 6 0 11 -16 11 -37 0 -21 3 -49 7 -63 6 -21 9 -17
29 35 14 37 23 51 23 37 1 -12 -6 -39 -14 -59 -9 -21 -13 -49 -10 -64 7 -33
30 -55 40 -39 3 5 14 10 25 10 11 0 28 18 45 46 15 25 29 43 32 40 3 -3 -6
-25 -21 -50 -21 -35 -35 -48 -67 -57 -46 -14 -57 -7 -69 43 -6 27 -9 30 -15
15 -4 -11 0 -41 12 -76 l20 -59 -67 -136 c-61 -125 -91 -175 -89 -151 0 6 13
35 29 65 16 30 40 80 55 110 14 30 33 69 42 87 15 30 14 35 -4 72 l-20 41 -6
-43 c-9 -72 -15 -88 -41 -112 -41 -38 -66 -98 -66 -160 0 -65 -8 -84 -64 -143
-50 -53 -64 -79 -75 -137 -7 -39 -6 -44 6 -33 8 6 21 24 28 39 8 15 35 39 59
53 70 41 82 83 26 87 -9 0 -11 2 -3 5 7 3 20 1 31 -5 16 -8 21 -5 36 25 9 20
31 53 48 75 20 25 34 56 39 89 4 28 17 62 28 76 11 14 27 48 36 75 13 38 27
58 59 80 22 17 46 40 53 52 8 14 12 17 12 7 0 -20 -16 -39 -61 -72 -24 -18
-39 -39 -43 -60 -4 -18 -14 -44 -23 -58 -16 -25 -15 -25 17 3 47 39 90 37 140
-8 35 -32 42 -35 77 -27 l39 8 -3 58 c-2 40 2 65 13 82 14 21 14 24 0 24 -8 0
-15 -4 -15 -10 0 -5 -14 -17 -31 -26 l-31 -16 36 37 c20 19 42 35 49 34 23 -4
47 13 47 34 0 16 3 18 12 9 9 -9 6 -17 -12 -37 -13 -14 -19 -25 -13 -25 16 0
43 35 43 56 0 11 7 29 15 40 14 18 15 18 8 0 -6 -19 -6 -19 25 0 18 10 32 24
32 30 0 19 41 61 46 48 3 -7 14 -10 24 -7 17 4 20 0 20 -25 0 -39 -19 -53 -63
-48 -30 4 -41 0 -69 -27 l-33 -32 28 -3 c16 -2 39 5 56 17 37 27 54 27 22 0
-21 -17 -23 -23 -12 -46 6 -14 10 -28 7 -30 -2 -2 -7 5 -11 16 -9 31 -84 29
-121 -2 -25 -22 -26 -25 -14 -60 12 -32 16 -35 34 -25 12 6 31 20 44 31 12 11
22 16 22 11 -1 -17 -27 -43 -53 -53 -17 -7 -27 -18 -27 -31 0 -17 6 -20 50
-20 42 0 50 3 50 19 0 10 14 33 30 51 30 33 38 46 20 35 -5 -3 -10 -1 -10 4 0
6 6 11 14 11 17 0 31 18 22 27 -3 3 -12 0 -21 -7 -27 -22 -18 35 11 69 30 35
44 39 44 12 0 -12 7 -18 17 -17 12 0 19 -7 21 -22 4 -28 -14 -52 -39 -52 -23
0 -51 -52 -43 -77 6 -16 5 -16 -8 1 -16 20 -21 16 -37 -28 -10 -24 -9 -26 19
-26 35 0 76 40 86 85 3 16 12 37 19 45 7 8 18 37 24 64 10 40 9 51 -2 65 -13
14 -13 22 0 64 7 26 18 45 22 42 5 -2 2 -23 -5 -46 -13 -37 -13 -43 2 -53 14
-10 14 -18 4 -55 -6 -24 -9 -45 -7 -48 3 -2 17 12 32 32 16 20 42 45 59 57 17
11 -4 -15 -46 -58 -46 -48 -80 -91 -84 -109 -4 -16 -14 -38 -23 -49 -15 -18
-15 -18 7 -12 39 13 23 -4 -24 -24 -27 -12 -68 -20 -100 -20 -31 0 -54 -4 -54
-11 0 -5 5 -7 10 -4 16 10 12 -1 -25 -75 l-35 -70 47 6 c31 4 58 15 75 32 24
22 31 24 53 14 14 -7 30 -12 35 -12 17 0 21 40 6 62 -20 28 -21 48 -1 22 11
-14 14 -15 15 -4 0 8 9 26 20 40 11 14 20 37 20 51 0 43 12 89 22 89 6 0 7
-13 2 -32 -4 -18 -7 -42 -6 -53 1 -11 -8 -36 -20 -55 -20 -32 -32 -110 -18
-110 4 0 17 11 30 25 23 24 58 36 45 15 -8 -13 -5 -13 34 1 19 7 36 22 41 35
6 15 29 33 62 47 29 13 59 31 67 40 7 10 20 17 27 17 7 0 11 6 8 14 -3 8 5 23
17 35 12 11 20 23 17 27 -4 3 -20 -9 -37 -26 -26 -27 -32 -30 -37 -16 -3 9 -2
22 3 29 13 16 23 57 14 57 -4 0 -12 -5 -19 -12 -6 -6 -15 -8 -19 -3 -5 4 -2
10 5 12 14 5 17 33 3 33 -13 0 -21 -41 -14 -68 3 -14 -1 -30 -10 -40 -8 -9
-17 -26 -19 -37 -5 -29 -43 -31 -63 -3 l-17 23 5 -22 c4 -18 1 -22 -16 -19
-11 1 -24 11 -28 22 -7 18 -8 18 -8 -1 -1 -12 5 -27 12 -34 10 -10 8 -12 -8
-9 -24 4 -32 42 -13 65 7 9 12 24 10 34 -2 10 2 36 8 58 9 33 18 44 48 56 32
14 38 14 47 1 10 -13 14 -11 27 12 11 18 13 33 7 44 -7 12 -2 22 21 39 31 25
40 45 15 36 -8 -4 -17 -2 -20 3 -3 5 -11 7 -18 4 -8 -3 -18 13 -26 41 -16 53
-26 49 -38 -15 -7 -35 -13 -45 -28 -45 -12 0 -20 7 -20 17 0 23 -10 31 -42 34
-14 2 -29 8 -33 15 -5 6 -13 8 -20 4 -10 -6 -11 -2 -6 16 18 61 7 109 -24 109
-7 0 -10 7 -6 15 3 8 0 15 -6 15 -6 0 -1 11 12 25 32 34 21 39 -22 10 -39 -27
-47 -24 -49 14 -1 21 -3 20 -9 -9 -5 -28 -8 -31 -14 -17 -5 9 -5 29 -2 43 5
20 12 25 27 21 28 -7 84 22 70 36 -8 8 -15 5 -27 -11 -8 -12 -19 -22 -25 -22
-12 0 -12 37 1 45 6 3 10 14 10 24 0 26 26 46 37 29 4 -7 27 -13 53 -13 49 -1
64 -21 38 -52 -17 -21 -17 -71 0 -78 7 -3 11 -9 7 -14 -3 -5 -1 -13 5 -16 8
-5 6 -15 -4 -31 -21 -31 -21 -51 -1 -34 8 7 15 20 15 30 0 10 6 23 14 30 8 6
12 18 10 25 -3 7 5 19 17 25 19 10 24 10 34 -4 7 -8 14 -13 17 -11 3 3 17 1
30 -4 21 -8 25 -15 21 -35 -4 -21 -2 -25 10 -20 20 7 32 -13 17 -31 -7 -8 -9
-15 -5 -15 4 0 14 8 21 18 11 14 15 14 22 4 5 -8 13 -14 18 -15 5 -1 8 -5 7
-9 -2 -5 4 -8 12 -8 17 0 20 -25 5 -35 -5 -3 -10 1 -10 11 0 13 -4 11 -20 -7
-14 -17 -20 -20 -20 -9 0 12 -4 10 -15 -4 -13 -18 -15 -18 -15 -3 0 10 7 20
15 23 8 4 15 15 15 26 0 17 -2 18 -15 4 -8 -8 -15 -19 -15 -25 0 -5 -8 -16
-17 -23 -10 -7 -24 -24 -32 -38 l-14 -24 27 18 c15 10 34 15 42 12 8 -3 14 1
14 10 0 8 4 13 9 9 5 -3 13 0 16 6 4 5 13 8 21 5 7 -3 16 -1 19 4 5 7 24 8 68
1 4 0 7 -8 7 -16 0 -11 5 -12 26 -5 35 14 34 14 34 -21 0 -29 2 -30 33 -24
l32 6 -25 -15 c-15 -9 -29 -11 -36 -5 -6 5 -16 4 -23 -4 -10 -9 -15 -9 -18 0
-2 7 -11 9 -19 6 -8 -3 -14 1 -14 8 0 7 -3 10 -6 6 -3 -3 -3 -14 0 -25 5 -14
13 -18 27 -15 19 5 20 4 10 -15 -10 -18 -9 -21 4 -16 21 9 19 -19 -3 -39 -10
-10 -22 -14 -25 -11 -4 4 -11 -5 -17 -20 -5 -15 -17 -29 -25 -32 -12 -5 -13
-10 -5 -20 8 -9 8 -18 1 -33 -6 -11 -11 -35 -11 -55 0 -25 -6 -39 -22 -50 -12
-9 -18 -16 -13 -16 6 0 -6 -8 -25 -18 -19 -10 -34 -24 -32 -31 2 -7 -5 -22
-14 -32 -9 -11 -12 -19 -6 -19 6 0 20 14 32 30 12 17 27 30 33 30 6 0 -11 -22
-38 -50 -27 -27 -56 -50 -65 -50 -10 0 -7 6 10 20 34 27 24 25 -63 -10 -42
-16 -81 -30 -87 -30 -7 0 -34 -12 -60 -27 -45 -25 -51 -26 -85 -14 -35 12 -38
11 -64 -13 -15 -14 -32 -26 -38 -26 -6 0 -23 -6 -38 -14 -16 -8 -58 -18 -94
-21 -36 -4 -81 -11 -99 -17 -19 -6 -68 -11 -111 -13 -69 -2 -175 -27 -185 -43
-2 -4 99 -49 225 -101 126 -52 228 -96 226 -98 -2 -2 -109 40 -236 92 l-233
96 -46 -43 c-26 -24 -91 -76 -145 -116 -110 -83 -133 -109 -179 -207 -45 -97
-50 -174 -15 -248 15 -30 41 -65 59 -79 18 -14 76 -67 128 -118 97 -93 167
-138 250 -159 39 -10 95 -31 165 -61 20 -8 135 -24 250 -35 33 -3 82 -16 110
-29 94 -44 155 -69 159 -65 2 2 8 18 14 34 11 29 11 29 6 -7 -6 -36 -5 -38 20
-38 24 0 146 -55 146 -66 0 -5 -24 1 -58 13 -8 4 -10 0 -6 -11 4 -11 16 -14
44 -12 32 3 43 -1 66 -25 15 -16 34 -29 41 -29 7 0 13 -7 13 -15 0 -8 9 -20
20 -27 11 -7 20 -16 20 -21 0 -4 11 -20 25 -35 14 -15 25 -30 25 -34 0 -3 -43
-30 -95 -59 -52 -29 -95 -56 -95 -61 0 -4 -5 -8 -12 -8 -23 0 24 38 102 81 44
24 80 46 80 50 0 3 -8 13 -18 22 -17 16 -22 14 -83 -29 -35 -25 -72 -56 -83
-68 -19 -21 -19 -21 -11 14 4 19 24 70 44 112 l37 78 -20 18 c-12 11 -37 19
-59 19 l-37 1 -60 -120 c-58 -117 -60 -122 -60 -201 0 -116 -6 -91 -12 48 -3
66 -3 102 1 80 l6 -39 56 114 c62 128 63 121 -17 152 -38 14 -43 14 -64 -2
-21 -16 -25 -30 -32 -116 -21 -246 -21 -282 -3 -310 9 -15 12 -23 5 -19 -18
11 -70 97 -70 114 1 9 7 1 15 -17 8 -17 16 -32 18 -32 4 0 -8 83 -18 120 l-6
25 14 -24 c14 -23 14 -23 20 16 4 21 10 78 13 125 7 85 6 87 -15 81 -19 -5
-21 -12 -22 -92 -2 -91 -4 -88 -14 22 -5 47 -11 67 -20 67 -20 0 -36 -33 -24
-51 5 -7 8 -23 8 -34 -1 -16 -2 -15 -8 5 -6 21 -38 36 -42 20 -6 -23 34 -247
67 -369 36 -135 31 -127 54 -106 11 10 20 14 20 8 0 -5 -39 -36 -87 -68 -121
-81 -202 -130 -177 -108 l21 19 -56 85 c-31 47 -71 110 -90 139 -19 29 -46 86
-62 127 -33 88 -34 90 -54 73 -8 -7 -22 -9 -32 -5 -22 10 -61 7 -88 -5 -41
-17 -60 -23 -72 -21 -7 1 -13 -2 -13 -6 1 -28 33 -141 51 -176 22 -42 51 -138
45 -145 -2 -2 -12 21 -22 50 -9 29 -27 75 -39 103 -13 27 -28 75 -34 105 -10
49 -14 55 -36 55 -14 0 -25 0 -25 -1 0 -1 4 -14 10 -30 5 -16 14 -60 19 -97 7
-52 20 -86 55 -145 58 -100 96 -153 104 -149 4 2 15 -4 24 -15 16 -16 16 -18
2 -18 -24 0 -67 52 -131 159 -50 82 -58 104 -69 179 -7 46 -15 90 -18 97 -6
16 -92 17 -106 0 -10 -12 3 -125 20 -169 17 -46 10 -43 -12 4 -11 25 -22 69
-25 98 l-6 53 -52 -6 c-34 -5 -55 -3 -59 4 -10 15 -26 14 -22 -1 1 -7 1 -10
-1 -5 -10 16 -23 5 -24 -20 -1 -17 -3 -21 -6 -10 -2 9 -9 17 -14 17 -14 0 -10
-43 6 -64 8 -11 15 -40 15 -65 1 -25 7 -57 14 -71 12 -21 20 -24 53 -21 21 1
35 0 32 -3 -3 -3 -18 -7 -32 -8 -30 -3 -31 -7 -17 -91 6 -37 6 -77 0 -108 -6
-33 -6 -57 1 -73 8 -17 8 -29 0 -45 -7 -12 -14 -50 -18 -86 l-6 -65 57 0 c31
0 59 1 64 3 4 1 6 24 4 51 -2 32 2 54 12 65 8 9 17 37 21 63 6 41 12 50 44 66
35 18 36 21 34 70 -1 28 -11 71 -21 96 -11 24 -23 59 -26 77 l-6 34 11 -30 c6
-16 19 -49 30 -73 11 -23 23 -66 26 -95 5 -51 4 -55 -25 -75 -16 -12 -35 -22
-41 -22 -6 0 -11 -18 -11 -43 0 -24 -7 -53 -17 -67 -12 -17 -18 -44 -18 -80
l0 -55 -68 3 c-56 3 -66 1 -61 -11 11 -29 -24 -47 -90 -47 -76 0 -103 22 -108
87 l-3 42 -32 -16 c-31 -14 -32 -16 -19 -42 22 -42 76 -182 76 -194 -1 -11
-21 32 -81 171 l-19 44 -37 -21 c-21 -11 -78 -35 -128 -52 -49 -17 -93 -34
-97 -38 -6 -6 212 -595 225 -608 3 -2 22 3 42 11 34 15 37 19 32 46 -9 42 4
229 14 205 4 -11 5 -66 2 -122 -4 -70 -2 -103 5 -103 9 0 173 67 179 74 2 1
-4 28 -12 60 -8 31 -15 75 -15 97 0 46 -11 72 -49 113 -24 27 -24 28 -3 15 38
-23 62 -72 72 -152 9 -74 20 -127 25 -127 1 0 60 24 131 54 l129 54 3 54 c4
68 -21 107 -101 163 -38 27 -70 60 -93 98 -49 79 -36 84 15 5 26 -40 57 -73
86 -91 24 -16 56 -42 69 -58 26 -30 52 -130 40 -151 -8 -13 -8 -13 108 34 85
35 87 40 30 100 -30 33 -31 66 -3 128 25 54 27 145 6 197 -8 20 -44 75 -79
122 -62 85 -98 143 -54 87 13 -16 45 -56 72 -90 27 -33 57 -79 67 -101 25 -55
24 -144 -2 -227 -21 -63 -21 -68 -5 -90 9 -13 26 -37 37 -55 l20 -32 47 18
c36 14 48 25 54 47 43 171 42 161 19 200 -12 19 -16 32 -11 29 30 -18 40 -65
34 -150 -4 -47 -5 -85 -3 -85 7 0 132 54 145 62 6 4 32 60 58 125 l48 119 -26
38 c-14 21 -31 56 -36 76 -6 21 -39 75 -74 121 -35 46 -62 87 -59 92 2 4 -1
16 -8 25 -10 13 -8 12 9 -2 12 -11 18 -22 13 -25 -5 -4 22 -44 60 -89 45 -54
69 -92 69 -108 0 -29 22 -75 44 -93 20 -17 26 -4 106 224 l67 189 128 32 c102
26 165 50 311 120 162 78 184 91 184 112 0 24 -69 102 -90 102 -5 0 -10 5 -10
11 0 5 -21 -1 -47 -15 -29 -15 -80 -29 -128 -36 -126 -17 -133 -20 -180 -60
-40 -35 -110 -68 -121 -58 -2 3 15 11 38 19 23 7 60 31 82 52 39 36 46 39 151
55 130 19 209 54 178 78 -10 7 -24 14 -30 14 -12 0 -19 30 -8 30 8 0 46 -33
110 -96 74 -74 94 -127 69 -181 -13 -26 -14 -39 -4 -68 9 -27 15 -33 27 -27
23 13 65 1 70 -19 3 -12 14 -19 28 -19 15 0 25 -7 28 -21 4 -15 11 -19 24 -15
21 7 65 -28 102 -82 13 -18 44 -43 69 -56 26 -13 58 -33 72 -45 15 -12 -8 -4
-57 20 -46 22 -83 46 -83 52 0 32 -24 -25 -80 -188 -34 -99 -66 -187 -71 -197
-5 -9 -73 -61 -151 -116 -79 -55 -155 -113 -169 -128 -55 -61 -281 -346 -277
-350 2 -2 48 23 101 55 440 269 794 697 972 1175 188 508 182 1105 -16 1612
-75 193 -220 453 -232 419 -4 -10 -15 -15 -29 -13 -14 2 -31 -5 -41 -17 -18
-20 -18 -20 -12 2 5 18 1 25 -19 33 -14 5 -26 14 -26 19 0 5 -3 18 -7 28 -6
16 -5 16 10 4 9 -7 17 -19 17 -26 0 -13 30 -26 67 -28 13 -1 22 3 20 8 -1 6
-8 9 -14 9 -19 -2 -15 6 6 14 18 6 13 17 -51 102 -91 121 -325 355 -448 447
-128 96 -260 177 -260 159 0 -7 -7 -20 -16 -27 -15 -12 -16 -11 -9 11 6 20 5
23 -5 13 -19 -17 -5 -42 19 -36 12 3 21 1 21 -3 0 -18 -17 -35 -38 -39 -12 -2
-27 -7 -32 -10 -17 -10 -11 7 8 22 16 14 16 14 0 9 -10 -3 -18 -1 -18 4 0 6 5
10 11 10 5 0 7 5 4 10 -4 6 1 22 10 37 14 21 15 27 4 35 -28 19 -207 102 -294
135 -70 27 -285 93 -302 93 -2 0 -3 -7 -3 -16 0 -19 27 -47 34 -36 3 5 18 9
34 10 22 0 32 -6 41 -24 11 -25 26 -31 36 -14 9 14 34 12 51 -4 16 -17 19 -30
4 -21 -6 4 -10 -7 -10 -27 l1 -33 13 30 c15 35 43 61 54 51 4 -4 7 -20 7 -34
0 -20 4 -26 18 -24 10 2 17 -3 17 -13 0 -8 5 -15 11 -15 6 0 9 -6 6 -14 -4 -9
0 -12 13 -9 28 7 34 -16 11 -41 -12 -12 -21 -27 -21 -33 0 -5 -9 -18 -20 -28
-27 -25 -25 -37 5 -29 18 4 27 1 31 -10 8 -22 -30 -63 -65 -71 -15 -3 -31 -16
-36 -28 -6 -12 -17 -22 -25 -22 -14 0 -16 11 -8 60 2 13 -4 21 -17 23 -11 2
-23 9 -28 16 -11 16 1 58 24 82 13 14 17 24 10 28 -6 4 -19 -6 -28 -21 -18
-29 -43 -33 -69 -12 -8 6 -14 4 -18 -6 -3 -9 0 -15 9 -15 20 0 19 -14 -4 -34
-13 -12 -21 -14 -26 -6 -5 8 -11 8 -21 -1 -12 -9 -14 -6 -14 19 0 17 -5 34
-11 38 -8 5 -10 -1 -7 -19 3 -15 1 -24 -3 -21 -23 14 -4 57 26 59 27 2 63 26
68 45 4 16 11 20 31 16 14 -3 30 2 37 10 18 22 29 17 29 -13 1 -26 1 -27 12
-8 6 11 20 28 32 38 15 13 17 16 4 11 -16 -6 -16 -4 -2 26 9 17 14 34 10 37
-3 3 -13 -11 -22 -31 -10 -20 -20 -36 -23 -36 -19 1 -33 22 -34 53 -1 27 -4
34 -13 26 -14 -12 -26 -52 -13 -43 18 11 22 -28 4 -44 -16 -16 -17 -16 -10 8
6 20 5 23 -6 13 -21 -21 -36 -15 -48 19 -6 17 -14 28 -17 25 -4 -3 -2 -20 4
-36 8 -22 8 -31 1 -31 -6 0 -13 9 -16 21 -4 12 -11 18 -20 15 -8 -3 -17 -6
-19 -6 -2 0 -4 -6 -4 -14 0 -8 -5 -18 -11 -22 -8 -4 -9 1 -4 16 6 17 4 21 -6
14 -8 -5 -24 -10 -36 -12 -18 -2 -23 2 -23 18 0 12 -4 18 -10 15 -5 -3 -10
-15 -10 -26 0 -11 -5 -17 -10 -14 -10 6 -8 23 8 65 3 8 -8 0 -26 -18 -37 -38
-42 -39 -43 -9 0 20 -1 20 -8 3 -5 -14 -10 -16 -15 -8 -4 7 4 22 19 36 23 22
24 24 6 19 -12 -3 -21 -9 -21 -14 0 -17 -29 -9 -40 11 -6 11 -16 17 -25 14
-10 -4 -15 0 -15 12 0 26 62 74 87 68 13 -4 22 0 26 10 4 9 5 16 4 16 -1 0
-51 7 -112 15 -138 18 -482 18 -620 -1z m310 -24 c3 -5 -2 -10 -12 -10 -13 -1
-11 -5 10 -16 16 -9 27 -23 28 -37 1 -17 3 -14 10 10 12 41 21 46 55 28 21
-11 31 -11 42 -3 10 9 16 8 23 -3 6 -10 9 -10 9 -1 0 18 27 15 39 -5 10 -17
10 -17 11 0 0 29 24 14 31 -19 4 -16 7 -23 8 -16 1 15 21 16 21 1 0 -11 25
-39 35 -39 14 0 47 -40 43 -52 -3 -7 2 -18 11 -25 14 -10 14 -13 -3 -32 -28
-31 -72 -28 -90 7 -10 18 -15 21 -16 10 0 -9 7 -23 15 -32 8 -8 12 -21 9 -29
-3 -8 0 -18 7 -23 9 -5 10 -2 6 9 -6 17 4 23 16 11 11 -11 -14 -46 -28 -40 -7
2 -15 -4 -18 -14 -4 -14 0 -18 17 -16 33 3 46 15 39 33 -4 11 -3 14 5 9 19
-12 35 3 21 20 -13 16 -6 30 10 20 15 -10 11 -77 -6 -104 -8 -13 -17 -21 -20
-18 -3 3 0 12 7 20 6 9 10 21 7 28 -3 8 -10 2 -17 -14 -10 -22 -16 -25 -27
-16 -19 16 -27 4 -12 -20 11 -18 10 -24 -6 -42 -10 -11 -15 -23 -12 -27 4 -3
7 -1 7 5 0 7 4 12 10 12 5 0 7 -7 3 -16 -3 -10 -13 -14 -25 -11 -11 3 -22 -1
-25 -9 -4 -12 -8 -12 -21 -2 -13 11 -14 10 -8 -14 7 -29 -8 -39 -18 -12 -6 15
7 48 21 56 5 3 2 3 -4 2 -24 -6 -26 44 -4 72 16 20 18 30 10 40 -6 7 -8 18 -4
24 5 8 12 5 21 -7 13 -16 14 -15 7 12 -6 27 -5 29 10 16 15 -12 17 -11 17 7 0
11 -7 22 -15 26 -22 8 -45 -3 -38 -20 3 -8 0 -14 -6 -14 -6 0 -14 12 -17 26
-5 18 -1 30 15 45 27 26 27 33 -1 18 -48 -25 -57 -64 -59 -249 -1 -30 -16 -50
-36 -50 -10 0 -14 7 -10 20 3 13 0 20 -9 20 -8 0 -11 -6 -8 -15 8 -20 -5 -19
-28 2 -10 9 -18 11 -18 6 0 -6 7 -16 15 -23 8 -7 15 -23 15 -35 0 -13 16 -42
35 -65 19 -23 35 -45 35 -48 1 -4 16 -24 34 -44 l32 -37 43 85 c41 81 63 108
41 50 -5 -15 -7 -32 -4 -38 5 -7 2 -8 -6 -3 -10 6 -12 4 -7 -8 3 -9 -2 -36
-13 -59 -18 -42 -33 -190 -30 -305 1 -30 -4 -54 -11 -59 -9 -5 -10 23 -4 122
13 222 13 215 -1 203 -15 -13 -53 24 -83 81 -10 19 -27 43 -37 52 -18 16 -19
15 -20 -13 -1 -22 3 -29 18 -29 11 0 26 -13 36 -32 9 -17 30 -44 46 -60 30
-27 30 -29 27 -125 -1 -54 -6 -112 -12 -130 -8 -24 -6 -40 7 -70 25 -57 18
-82 -41 -143 -29 -30 -63 -73 -74 -95 -14 -25 -19 -30 -15 -15 3 14 14 40 25
58 l18 32 -33 14 c-67 28 -72 28 -84 1 -7 -14 -12 -69 -12 -122 l0 -96 21 19
c26 23 23 12 -11 -38 -35 -52 -49 -49 -44 10 12 131 23 209 32 232 9 22 6 27
-22 43 -17 10 -22 15 -11 12 47 -16 50 -14 55 65 4 66 11 85 54 165 l50 90
-28 78 c-31 88 -28 116 5 41 40 -91 37 -119 -18 -225 -48 -90 -50 -97 -48
-168 l1 -74 53 -20 52 -20 34 33 c46 45 49 58 24 114 -16 38 -19 53 -10 74 5
15 13 73 15 129 l6 102 -30 21 c-17 12 -30 28 -30 36 0 22 -37 54 -62 54 -29
0 -104 76 -83 84 9 3 28 -9 45 -27 35 -38 40 -21 10 38 -11 22 -20 47 -20 57
0 10 -7 21 -15 24 -15 6 -30 41 -27 62 2 6 -4 12 -13 12 -17 0 -20 -16 -5 -25
6 -4 8 -11 4 -16 -3 -5 -10 -6 -16 -3 -7 4 -8 2 -4 -5 4 -6 2 -19 -5 -27 -7
-9 -14 -37 -15 -62 -1 -26 -4 -76 -7 -112 l-7 -65 15 69 c18 87 30 100 20 21
-9 -68 -9 -80 0 -150 l7 -50 -57 -45 c-32 -25 -66 -56 -76 -69 -11 -14 -19
-18 -19 -10 1 20 27 48 86 92 45 34 51 43 48 70 -5 36 -14 49 -14 19 0 -12
-27 -48 -65 -87 -57 -59 -65 -64 -65 -43 0 13 -7 33 -15 44 -18 24 -19 8 -1
-42 7 -22 14 -59 14 -84 1 -25 8 -67 17 -95 18 -60 19 -109 3 -135 -10 -15 -9
-32 1 -82 8 -35 17 -84 21 -110 10 -75 44 -100 74 -56 10 14 16 17 16 9 0 -17
-29 -51 -43 -51 -6 0 -19 8 -30 18 -20 17 -20 16 -13 -27 4 -24 13 -56 21 -72
20 -39 19 -77 -7 -164 l-22 -74 28 -78 c15 -43 30 -87 32 -98 5 -20 5 -20 -10
0 -9 10 -26 49 -38 87 -21 66 -21 69 -5 151 16 84 15 98 -14 192 -6 22 -13 83
-14 135 -1 52 -6 122 -10 156 -5 39 -4 68 3 81 9 15 6 40 -8 102 -11 45 -20
98 -20 117 0 46 -28 134 -50 158 -17 18 -18 18 -25 -5 -4 -13 -14 -31 -22 -41
-13 -14 -13 -19 1 -40 8 -13 31 -68 51 -123 40 -109 43 -169 10 -205 -9 -10
-21 -38 -26 -62 -5 -24 -20 -62 -32 -86 l-22 -42 28 -49 c22 -41 28 -64 31
-132 2 -70 1 -79 -11 -63 -7 10 -13 43 -13 74 0 68 -30 110 -43 60 -8 -31 -56
-25 -134 16 -64 34 -127 52 -252 74 -30 5 -58 7 -62 4 -4 -2 -13 15 -19 38 -7
24 -20 52 -30 63 -25 29 -40 60 -40 86 0 12 -12 42 -26 67 -25 42 -26 49 -16
93 8 32 8 57 2 74 -6 15 -6 25 0 25 15 0 22 -40 15 -95 -5 -44 -2 -59 19 -100
l26 -48 0 33 c0 24 9 41 36 66 19 19 41 34 47 35 7 0 25 2 40 3 30 2 76 49 77
78 0 9 -19 29 -42 45 -30 20 -44 37 -46 56 -4 37 -22 24 -22 -16 0 -18 -4 -38
-9 -46 -6 -9 -9 3 -9 37 -1 37 4 54 15 60 11 7 14 19 11 41 -3 20 -1 30 6 28
6 -2 11 -14 10 -26 0 -11 3 -21 8 -21 15 0 8 45 -12 70 -11 14 -20 32 -20 40
0 13 1 13 10 0 9 -15 11 -12 25 37 2 7 -3 26 -11 43 -16 31 -12 66 5 55 6 -3
14 2 19 11 18 33 69 -17 55 -53 -8 -21 -25 -15 -18 6 3 10 -1 24 -10 31 -12
10 -15 10 -15 -4 0 -10 5 -27 11 -38 9 -17 8 -23 -4 -30 -17 -9 -33 -90 -22
-108 11 -18 45 40 45 78 0 41 16 42 22 1 4 -23 -3 -41 -25 -72 -19 -25 -30
-54 -31 -76 -1 -30 3 -35 28 -42 37 -10 55 10 56 66 2 40 2 40 12 12 7 -21 7
-36 -1 -53 -13 -30 -13 -35 -2 -52 6 -11 17 -6 45 22 39 40 42 46 25 63 -6 6
-12 29 -12 52 -1 28 -6 40 -14 36 -8 -3 -11 5 -9 23 2 15 1 19 -1 10 -6 -23
-12 -23 -34 4 -24 27 -26 98 -4 98 8 0 15 -6 15 -12 0 -7 5 -5 11 5 12 21 32
22 49 2 25 -30 21 -6 -4 32 -17 25 -34 38 -48 38 -16 0 -29 12 -46 43 -28 51
-13 57 17 6 14 -24 27 -34 36 -30 10 3 26 -9 46 -37 l30 -42 -3 62 c-1 34 1
65 5 69 4 4 7 -33 7 -82 0 -74 4 -97 24 -137 21 -41 25 -45 31 -26 4 11 9 18
11 16 10 -10 -37 -111 -70 -152 -20 -24 -36 -47 -36 -52 0 -4 4 -1 10 7 10 17
6 24 44 -85 14 -38 25 -63 25 -54 1 8 12 26 26 39 19 18 25 34 25 67 0 39 4
46 34 64 37 22 39 51 5 69 -10 6 -24 29 -31 53 -6 23 -27 60 -45 82 -19 22
-29 41 -23 43 6 2 12 2 13 1 1 -2 16 -22 33 -44 17 -23 35 -55 38 -71 4 -17
18 -41 32 -53 30 -26 34 -26 34 -3 0 11 14 46 31 80 25 51 28 65 19 82 -9 17
-8 30 4 61 21 51 20 56 -4 34 -11 -10 -17 -22 -14 -27 3 -4 2 -7 -3 -6 -4 2
-23 -8 -40 -22 -38 -27 -44 -65 -13 -73 20 -5 28 -27 10 -27 -5 0 -10 5 -10
10 0 6 -6 10 -14 10 -23 0 -68 49 -63 70 3 12 -2 20 -14 23 -10 3 -22 13 -25
24 -4 10 -14 26 -22 35 -13 15 -13 21 2 52 21 44 32 51 54 34 15 -11 15 -11 6
2 -6 8 -14 32 -18 52 -4 21 -11 40 -16 43 -6 3 -7 -1 -4 -9 3 -9 2 -16 -4 -16
-16 0 -21 25 -12 66 5 23 5 44 -1 53 -8 13 -9 12 -5 -4 6 -23 -8 -50 -26 -50
-7 -1 -12 -6 -10 -13 3 -15 -11 -15 -26 0 -12 12 -72 17 -72 6 0 -5 5 -8 10
-8 6 0 10 -6 10 -14 0 -7 7 -19 15 -26 8 -7 15 -17 15 -22 0 -6 -7 -8 -15 -4
-10 4 -15 -1 -15 -15 0 -11 -5 -17 -10 -14 -6 4 -8 11 -5 16 11 16 -1 10 -29
-16 -15 -14 -36 -25 -47 -25 -10 0 -19 -4 -19 -10 0 -19 -15 -10 -32 20 -17
30 -60 55 -66 39 -5 -13 -32 -11 -32 2 0 5 -4 7 -10 4 -6 -4 -10 7 -10 25 0
18 -4 29 -10 25 -5 -3 -10 -18 -10 -33 l0 -27 -20 25 c-19 24 -19 24 -13 2 3
-12 9 -25 14 -28 13 -8 11 -24 -3 -24 -6 0 -20 7 -30 17 -10 9 -18 11 -18 5 0
-6 10 -18 22 -26 16 -12 18 -16 7 -16 -21 0 -53 36 -44 49 3 6 13 11 21 11 8
0 14 4 14 10 0 5 -6 7 -14 4 -16 -6 -26 7 -43 55 -13 39 -9 53 12 44 9 -3 15
1 16 8 0 8 16 27 36 44 34 28 36 28 49 10 20 -27 17 -46 -7 -52 -15 -4 -17 -8
-8 -14 8 -4 19 -3 27 4 11 8 16 7 24 -6 5 -10 13 -15 18 -12 17 10 60 -14 60
-34 0 -11 5 -23 10 -26 6 -3 10 3 10 14 0 11 -5 23 -11 27 -7 4 -9 23 -5 51 4
28 2 42 -4 38 -6 -3 -10 -13 -10 -21 0 -8 -5 -14 -11 -14 -6 0 -8 8 -5 18 5
15 4 14 -9 -2 -8 -10 -16 -24 -18 -30 -3 -7 -11 -5 -23 6 -17 17 -17 18 1 38
10 11 13 20 7 20 -6 0 -13 8 -16 18 -3 9 -4 5 -2 -10 2 -16 -1 -28 -5 -28 -12
0 -23 46 -14 59 10 18 33 13 40 -8 4 -12 12 -18 20 -14 8 3 18 -2 21 -11 5
-13 10 -14 20 -5 7 6 18 8 24 4 5 -3 10 1 10 10 0 9 -4 14 -9 10 -6 -3 -15 3
-21 14 -8 16 -6 23 8 33 10 7 21 21 25 31 8 20 35 23 43 3 6 -15 43 -10 45 5
1 5 2 15 3 22 2 17 28 15 33 -3 4 -13 3 -13 -6 0 -7 9 -11 10 -11 3 0 -22 19
-23 39 -2 23 25 51 19 51 -11 0 -28 -20 -26 -21 3 0 17 -3 15 -14 -13 -7 -19
-14 -29 -14 -22 -1 6 -6 12 -12 12 -6 0 -8 -7 -5 -16 4 -12 1 -14 -14 -9 -14
5 -20 2 -20 -9 0 -20 -10 -20 -36 -1 -12 8 -24 11 -28 8 -3 -3 -6 4 -6 16 0
37 -17 15 -18 -25 -1 -32 0 -34 14 -23 14 11 19 10 33 -8 16 -19 18 -19 29 -4
10 15 13 14 28 -4 16 -20 16 -20 10 2 -9 27 4 35 63 37 33 2 55 9 71 24 16 15
26 18 31 11 4 -6 12 2 20 20 14 32 24 38 34 21 3 -5 19 -10 36 -10 16 0 29 -4
29 -10 0 -5 -8 -7 -17 -4 -15 5 -15 3 2 -11 20 -17 20 -17 -2 -12 -13 3 -23 1
-23 -4 0 -5 -7 -9 -15 -9 -8 0 -15 -7 -15 -16 0 -10 -5 -14 -16 -10 -8 3 -12
2 -9 -4 10 -16 33 -12 44 8 9 15 10 16 16 1 4 -10 14 -15 25 -12 14 4 19 -1
22 -21 3 -28 20 -37 26 -14 2 9 0 8 -8 -2 -10 -12 -11 -11 -7 7 3 13 1 26 -4
29 -12 7 -1 55 17 73 12 13 16 12 34 -4 20 -18 20 -18 20 11 0 41 16 55 46 42
19 -9 23 -18 22 -55 -1 -53 2 -57 30 -37 14 9 22 25 22 42 l-1 27 -14 -30 -13
-30 -1 32 c-1 37 13 50 34 33 21 -17 19 -56 -3 -72 -22 -16 -34 -45 -22 -53 5
-3 17 6 26 20 20 31 32 32 44 3 7 -18 9 -19 9 -5 1 10 20 35 42 56 27 24 38
41 30 45 -6 4 -11 1 -11 -8 0 -9 -5 -16 -11 -16 -6 0 -17 -7 -26 -15 -12 -12
-18 -13 -30 -4 -7 7 -12 18 -9 26 3 7 1 23 -4 35 -7 18 -9 19 -9 6 -1 -10 -6
-18 -12 -18 -20 0 -4 35 19 38 16 3 22 -2 22 -15 0 -12 8 -18 26 -19 23 -2 24
-1 10 15 -12 13 -13 20 -4 29 15 15 25 15 33 2z m-125 -10 c0 -5 -7 -10 -16
-10 -8 0 -13 -4 -9 -9 3 -5 1 -12 -4 -15 -13 -9 -22 9 -15 28 7 17 44 22 44 6z
m1129 -216 c6 -5 -31 -93 -44 -104 -13 -11 -45 -4 -45 10 0 5 5 12 10 15 6 4
8 16 5 26 -10 31 21 72 48 63 12 -3 24 -8 26 -10z m-2011 -106 c10 -24 17 -51
14 -60 -6 -24 -32 -31 -39 -10 -4 9 -15 23 -25 30 -23 17 -23 51 0 68 26 20
30 18 50 -28z m1452 -49 c0 -6 -4 -7 -10 -4 -5 3 -10 2 -10 -4 0 -5 5 -13 10
-16 13 -8 13 -25 0 -25 -18 0 -32 40 -20 56 13 14 30 10 30 -7z m269 4 c0 -5
-4 -16 -8 -27 -5 -14 2 -28 26 -54 33 -35 44 -69 20 -59 -7 3 -21 -1 -32 -9
-22 -16 -59 -19 -50 -4 3 6 16 10 28 11 21 0 21 1 2 9 -13 5 -26 3 -38 -8 -16
-14 -17 -13 -11 16 8 38 -9 43 -27 10 -12 -22 -13 -21 -24 17 -10 33 -13 37
-20 21 -5 -11 -3 -26 3 -37 15 -23 15 -29 2 -29 -6 0 -15 10 -21 23 -13 29 5
82 26 74 8 -4 12 -1 10 6 -3 7 0 19 5 27 7 12 13 13 27 4 14 -9 21 -8 31 2 13
15 53 19 51 7z m-189 -58 c0 -11 5 -26 12 -33 17 -17 -8 -42 -43 -42 -29 0
-46 14 -30 24 5 4 11 2 13 -4 3 -11 48 -2 48 10 0 5 -10 6 -21 3 -41 -11 -65
50 -33 82 15 15 18 15 35 -1 11 -9 19 -27 19 -39z m390 5 c0 -12 5 -17 14 -14
24 9 28 -14 7 -35 -14 -14 -20 -30 -17 -51 4 -38 16 -52 16 -19 0 14 3 19 8
13 4 -7 15 -8 27 -3 l20 8 -20 1 c-18 1 -18 2 5 16 24 14 24 15 3 11 -26 -6
-31 8 -7 17 24 9 65 -25 61 -51 -2 -12 1 -24 6 -26 15 -5 1 -36 -20 -44 -10
-4 -24 -13 -32 -21 -7 -7 -19 -11 -27 -8 -7 3 -15 0 -18 -7 -2 -7 -5 -2 -5 11
-1 14 -5 21 -12 16 -6 -3 -9 -15 -6 -25 6 -22 -8 -26 -16 -5 -3 7 2 24 11 37
11 16 12 24 4 27 -7 2 -12 12 -12 22 0 19 -39 35 -77 31 -27 -3 -29 8 -7 35
14 18 15 18 9 -6 l-6 -25 19 24 c13 17 26 22 40 19 12 -3 29 0 38 7 16 12 16
13 -5 20 -13 4 -28 2 -33 -3 -13 -13 -38 -4 -38 12 0 11 35 33 58 35 6 0 12
-8 12 -19z m63 -20 c-3 -11 -7 -20 -9 -20 -2 0 -4 9 -4 20 0 11 4 20 9 20 5 0
7 -9 4 -20z m-528 0 c4 -6 -3 -9 -16 -7 -12 1 -24 -4 -26 -10 -3 -8 4 -13 16
-13 12 0 21 -4 21 -10 0 -14 -33 -13 -48 2 -7 7 -8 17 -1 30 10 19 44 25 54 8z
m-1235 -15 c0 -8 6 -12 14 -9 8 3 17 0 21 -5 3 -6 10 -9 15 -6 4 3 13 -2 20
-9 8 -11 9 -20 0 -36 -12 -23 -30 -18 -30 8 0 13 -2 14 -9 3 -5 -7 -6 -22 -4
-32 3 -11 -1 -21 -10 -25 -9 -3 -13 -12 -10 -20 3 -8 1 -14 -5 -14 -6 0 -12 6
-15 13 -2 6 -7 9 -11 6 -4 -4 0 -14 9 -23 15 -15 15 -16 0 -16 -8 0 -20 11
-26 24 -14 29 -55 39 -84 20 -27 -18 -34 -104 -8 -104 12 0 14 7 10 30 -7 34
8 42 16 8 8 -28 -10 -60 -30 -56 -26 5 -40 35 -26 57 10 16 9 20 -8 24 -12 3
-19 14 -19 28 0 22 0 22 15 3 15 -18 15 -18 10 6 -4 18 0 31 14 44 12 11 21
29 21 40 0 15 -3 17 -9 8 -4 -8 -12 -13 -17 -13 -5 0 -9 -6 -9 -15 0 -20 -31
-38 -41 -23 -3 6 -2 14 4 18 6 3 10 15 9 26 -1 14 4 20 18 20 11 1 26 4 33 8
19 12 34 -3 29 -28 -3 -17 4 -29 25 -45 28 -20 39 -15 16 8 -9 9 -8 12 4 12
16 0 33 28 23 38 -3 3 -5 0 -5 -6 0 -7 -4 -12 -9 -12 -5 0 -7 10 -4 23 5 22 5
22 -10 2 -9 -11 -17 -15 -17 -8 0 21 27 40 59 41 20 0 31 -4 31 -13z m1160
-25 c0 -18 -26 -40 -48 -40 -15 0 -8 40 8 50 24 15 40 11 40 -10z m-89 -7 c12
-15 12 -16 -3 -10 -20 7 -25 -9 -5 -16 7 -3 6 -6 -5 -6 -21 -1 -32 15 -24 34
7 20 20 19 37 -2z m249 -43 c22 -14 0 -44 -35 -48 -17 -2 -25 0 -20 7 3 6 17
11 31 11 13 0 24 5 24 10 0 6 -15 10 -32 10 -25 0 -29 3 -18 10 19 12 31 12
50 0z m299 -14 c9 -11 9 -20 2 -35 -8 -15 -6 -30 9 -67 11 -26 19 -49 17 -51
-2 -2 -13 18 -24 45 -15 34 -26 48 -42 49 -21 2 -26 -12 -15 -41 9 -23 24 -19
24 6 0 16 3 19 11 11 9 -9 6 -20 -10 -46 -11 -19 -21 -44 -21 -55 0 -25 -54
-72 -84 -72 -12 0 -47 -18 -76 -40 -29 -22 -62 -40 -72 -40 -11 0 -29 -5 -41
-11 l-22 -12 20 22 c12 15 27 21 42 18 15 -3 34 6 58 29 31 28 35 36 26 53
-14 25 -15 124 -1 116 6 -3 10 -17 10 -31 0 -22 3 -23 20 -14 11 6 20 19 20
30 0 10 5 22 10 25 16 10 12 -28 -6 -53 -8 -12 -22 -22 -30 -22 -15 0 -19 -27
-6 -46 11 -17 78 -5 98 18 15 16 16 22 5 40 -9 15 -10 23 -2 31 8 8 11 7 11
-3 0 -13 2 -13 10 0 5 9 5 19 -2 27 -12 15 -2 101 14 121 14 16 33 15 47 -2z
m221 -65 c0 -19 -35 -39 -47 -28 -8 9 8 28 18 21 5 -3 9 -2 8 3 -3 15 1 23 11
23 6 0 10 -9 10 -19z m-496 -9 c-6 -4 -14 -18 -18 -32 -7 -24 -6 -24 8 -6 13
16 16 17 16 4 0 -18 -24 -41 -33 -31 -12 12 -7 46 10 65 9 10 19 16 22 13 3
-4 1 -9 -5 -13z m-1680 -10 c5 -15 17 -18 63 -17 36 0 58 -4 60 -12 3 -7 -3
-13 -12 -13 -9 0 -13 -4 -10 -10 7 -11 -24 -75 -32 -67 -2 3 0 14 6 25 15 29
14 37 -4 22 -8 -7 -15 -21 -15 -31 0 -26 -17 -32 -23 -9 -8 33 -30 24 -25 -10
5 -35 5 -35 -28 -14 -13 9 -27 14 -31 11 -10 -11 18 -37 39 -37 10 0 16 -4 13
-10 -9 -15 -36 -12 -57 7 -20 18 -24 53 -6 53 6 0 4 8 -6 19 -19 21 -14 41 10
41 8 0 14 9 14 19 0 47 32 71 44 33z m2726 -17 c-14 -17 -50 -21 -50 -5 0 5 7
7 16 3 10 -4 17 2 21 16 4 15 9 19 16 12 7 -7 6 -15 -3 -26z m85 -32 c-4 -10
-7 -25 -8 -33 0 -8 -5 -21 -11 -29 -8 -11 -8 -15 1 -18 10 -4 10 -9 0 -24 -6
-10 -15 -19 -20 -19 -4 0 -5 5 -2 11 10 16 12 69 3 63 -4 -3 -8 -12 -8 -20 0
-8 -5 -14 -11 -14 -6 0 -8 9 -4 20 7 23 2 25 -26 10 -10 -6 -19 -7 -19 -2 0 5
14 15 30 22 32 13 42 33 13 24 -15 -5 -15 -3 1 10 11 9 31 16 44 16 19 0 23
-4 17 -17z m-2545 -34 c4 -8 17 -34 29 -58 25 -47 23 -99 -4 -121 -7 -6 -19
-45 -26 -86 -6 -40 -18 -79 -25 -85 -8 -6 -14 -22 -14 -35 0 -13 -4 -24 -10
-24 -17 0 -11 36 10 63 13 17 20 40 20 70 0 39 -3 46 -24 51 -29 7 -65 56 -42
56 24 0 28 18 12 50 -18 38 -6 40 16 3 11 -21 13 -32 5 -44 -14 -21 -2 -49 20
-49 24 0 65 62 61 92 -2 12 -13 28 -26 34 -32 16 -41 28 -15 20 18 -6 22 -4
17 8 -3 9 -14 16 -23 16 -21 0 -58 26 -49 35 3 3 15 1 27 -6 25 -17 38 -5 20
17 -12 15 -12 17 0 13 8 -3 17 -12 21 -20z m2394 -8 c4 -5 -4 -22 -17 -38 -32
-38 -38 -59 -23 -73 10 -8 15 -7 20 5 3 8 12 15 21 15 18 0 20 -42 3 -70 -17
-27 3 -50 27 -30 9 7 14 18 12 25 -3 6 1 25 9 43 13 33 46 44 60 20 5 -7 11
-5 21 7 11 16 13 16 13 3 0 -9 -7 -18 -15 -22 -21 -8 -19 -27 3 -19 13 4 14 3
6 -6 -7 -7 -22 -9 -38 -5 -21 5 -24 9 -15 20 14 17 3 32 -11 18 -6 -6 -12 -20
-15 -33 -3 -18 0 -21 15 -16 10 3 21 1 25 -5 10 -16 -13 -38 -42 -42 -17 -2
-29 -12 -35 -28 -5 -13 -6 -21 -2 -17 12 12 44 -12 37 -29 -4 -12 0 -15 17
-12 31 4 37 26 9 30 -29 4 -34 21 -14 42 22 22 38 20 32 -3 -3 -12 1 -22 9
-25 19 -7 17 -32 -3 -48 -10 -7 -23 -22 -29 -33 -12 -22 -44 -33 -44 -16 0 6
7 11 16 11 9 0 14 6 11 13 -2 6 -10 11 -17 9 -8 -2 -11 4 -7 18 4 15 -1 24
-18 32 -16 7 -21 16 -17 31 4 16 2 19 -11 14 -15 -5 -16 -1 -12 26 6 37 -9 18
-19 -25 -4 -18 -2 -28 5 -28 6 0 9 -9 6 -19 -4 -16 0 -19 20 -18 35 3 49 -34
22 -59 -19 -17 -19 -16 -13 14 5 24 3 32 -7 32 -24 -1 -44 -24 -43 -50 1 -36
-15 -65 -29 -51 -8 8 -17 5 -34 -11 -20 -18 -23 -19 -23 -5 0 9 5 17 10 17 6
0 10 4 10 10 0 5 -7 7 -15 4 -9 -4 -15 0 -15 10 0 9 -7 16 -15 16 -8 0 -15 5
-15 10 0 6 7 10 15 10 8 0 15 4 15 10 0 5 -8 6 -17 3 -16 -6 -16 -5 -4 11 8 9
19 15 26 12 7 -2 10 6 7 23 -2 17 2 32 12 40 9 8 16 22 16 32 0 10 5 21 10 24
6 3 10 17 10 30 0 13 5 27 10 30 6 3 10 11 10 16 0 6 -4 7 -10 4 -21 -13 -9
14 15 33 13 11 22 22 18 26 -3 3 -12 1 -20 -5 -21 -18 -15 3 9 28 22 24 43 29
52 14z m266 -56 c0 -8 -4 -15 -9 -15 -5 0 -11 7 -15 15 -3 9 0 15 9 15 8 0 15
-7 15 -15z m-3026 -30 c8 -9 21 -14 27 -13 23 5 21 -33 -2 -58 -25 -26 -39
-31 -39 -11 0 6 -14 20 -30 29 -28 16 -39 46 -23 61 12 12 51 7 67 -8z m3051
-15 c0 -8 4 -21 9 -28 4 -7 2 -19 -5 -28 -16 -20 -29 -1 -23 34 4 21 2 24 -16
19 -20 -5 -27 3 -13 17 12 12 48 2 48 -14z m-3236 -89 c0 -25 -1 -24 -13 7 -6
18 -14 30 -18 27 -4 -4 -3 -18 3 -32 12 -32 12 -31 -13 -36 -22 -3 -22 -4 4
-15 14 -6 29 -16 33 -21 9 -16 25 -13 25 4 0 9 9 15 23 15 17 0 19 -2 8 -9
-13 -8 -13 -12 0 -27 13 -16 12 -17 -8 -12 -16 4 -23 2 -23 -7 0 -8 -8 -19
-17 -25 -13 -8 -14 -13 -5 -16 18 -8 4 -24 -16 -18 -12 4 -11 0 6 -14 12 -12
18 -23 14 -26 -5 -3 -18 4 -28 15 -10 12 -32 28 -47 36 -22 11 -28 20 -25 41
2 20 -3 30 -19 37 -25 11 -31 24 -10 21 6 0 13 4 15 9 1 6 -2 10 -7 10 -5 0
-13 3 -17 8 -4 4 3 7 16 7 12 0 29 -8 36 -17 13 -17 13 -17 14 0 0 9 7 17 15
17 16 0 10 29 -9 43 -8 6 -7 10 2 14 6 2 12 11 12 20 0 10 -6 13 -22 8 -23 -6
-23 -6 -3 10 18 15 21 14 47 -16 16 -18 28 -43 27 -58z m91 79 c0 -5 -4 -10
-10 -10 -5 0 -10 -5 -10 -11 0 -6 9 -9 20 -6 11 3 20 1 20 -4 0 -13 -47 -11
-55 1 -7 12 12 40 26 40 5 0 9 -4 9 -10z m3094 -19 c3 -4 -7 -6 -21 -3 l-27 5
34 -44 33 -44 -38 36 c-20 20 -34 42 -31 48 8 13 43 15 50 2z m-2898 -25 c5
-14 -25 -71 -33 -62 -3 2 3 15 12 29 22 35 2 44 -24 11 -24 -31 -29 -19 -5 14
17 25 42 29 50 8z m154 4 c0 -5 -2 -10 -4 -10 -3 0 -8 5 -11 10 -3 6 -1 10 4
10 6 0 11 -4 11 -10z m2860 -23 c0 -13 9 -26 22 -32 24 -10 38 -45 19 -45 -6
0 -11 7 -11 15 0 8 -4 15 -10 15 -5 0 -10 -10 -10 -22 -1 -21 -1 -22 -11 -5
-10 17 -16 38 -18 61 -1 4 -10 -2 -21 -15 -19 -22 -20 -22 -18 -4 4 25 38 66
50 59 4 -3 8 -15 8 -27z m-3160 13 c0 -5 -4 -10 -10 -10 -5 0 -10 -7 -10 -15
0 -18 12 -19 28 -3 8 8 12 8 12 1 0 -31 -52 -40 -84 -14 -13 11 -16 11 -16 -2
0 -8 6 -18 13 -20 7 -3 5 -6 -6 -6 -25 -1 -33 27 -13 47 16 16 18 16 32 -2 10
-15 14 -16 14 -5 0 16 19 39 32 39 4 0 8 -4 8 -10z m222 -60 c5 0 4 10 -3 21
-9 17 -8 20 3 17 17 -6 23 -37 9 -51 -17 -17 -41 11 -40 47 l1 31 10 -32 c6
-18 15 -33 20 -33z m77 -37 c15 -51 13 -72 -7 -113 -15 -29 -23 -35 -46 -33
-37 3 -62 26 -90 86 -30 62 -11 56 23 -8 28 -53 71 -79 93 -57 13 13 16 95 5
135 -4 16 -3 27 2 27 6 0 15 -17 20 -37z m506 16 c5 -5 -5 -4 -23 2 -17 6 -32
13 -32 16 0 7 43 -8 55 -18z m-827 -20 c1 -13 -2 -31 -8 -39 -8 -13 -11 -13
-26 2 -15 14 -16 22 -6 43 15 32 36 28 40 -6z m138 20 c3 -6 1 -16 -5 -22 -8
-8 -11 -8 -11 1 0 7 -4 12 -10 12 -5 0 -7 -8 -3 -17 5 -14 3 -16 -7 -6 -7 6
-10 19 -7 27 7 18 33 21 43 5z m-66 -16 c0 -15 -2 -16 -10 -3 -5 8 -12 11 -16
7 -4 -3 -1 -13 6 -22 7 -9 11 -18 8 -20 -10 -10 -30 25 -24 40 8 21 36 19 36
-2z m2936 -14 c10 -17 -13 -36 -27 -22 -12 12 -4 33 11 33 5 0 12 -5 16 -11z
m40 -44 c3 -8 -1 -22 -10 -30 -18 -19 -21 -35 -6 -35 6 0 10 6 10 13 0 8 4 7
10 -3 10 -16 14 -8 10 24 -1 11 3 16 9 11 6 -3 9 -11 6 -16 -11 -17 15 -9 35
11 17 17 20 18 20 3 0 -15 1 -15 18 0 20 18 32 13 32 -13 0 -9 9 -25 20 -35
18 -16 20 -16 20 -2 0 25 -4 32 -15 29 -5 -1 1 7 15 18 28 22 43 21 48 -4 2
-11 -4 -19 -16 -23 -14 -3 -18 -11 -15 -24 4 -14 0 -19 -14 -19 -10 0 -23 4
-28 8 -13 12 -50 -9 -50 -28 0 -10 -12 -16 -32 -18 -19 -2 -33 1 -33 7 0 6 12
11 28 11 19 0 23 3 13 9 -19 12 -5 30 18 24 24 -6 34 11 25 39 -6 21 -7 21
-20 3 -8 -10 -14 -14 -14 -7 0 6 -6 9 -14 6 -8 -3 -13 -11 -10 -18 3 -7 -3
-19 -12 -27 -15 -12 -16 -12 -9 9 6 21 5 23 -13 13 -11 -6 -22 -7 -26 -4 -3 3
-6 -1 -6 -11 0 -22 -26 -32 -45 -16 -12 10 -11 16 8 43 12 18 26 34 30 36 4 1
0 9 -10 17 -17 13 -17 13 0 14 10 0 20 -7 23 -15z m-51 -20 c0 -22 -31 -33
-48 -16 -16 16 0 26 18 11 10 -8 15 -9 15 -1 0 6 -4 11 -10 11 -5 0 -10 5 -10
11 0 6 8 9 18 7 9 -2 17 -12 17 -23z m-363 -27 c-7 -7 -12 -8 -12 -2 0 6 3 14
7 17 3 4 9 5 12 2 2 -3 -1 -11 -7 -17z m-1435 -35 c-5 -4 -97 34 -97 41 0 3
23 -5 50 -16 28 -11 49 -23 47 -25z m1653 17 c0 -11 -2 -20 -4 -20 -2 0 -13
-3 -23 -7 -16 -6 -16 -5 -5 10 8 9 11 21 7 27 -3 5 1 10 9 10 9 0 16 -9 16
-20z m91 -11 c9 -17 8 -25 -5 -37 -17 -18 -45 -9 -54 17 -3 10 0 10 16 0 26
-16 43 -2 20 15 -10 7 -15 16 -11 19 11 12 22 7 34 -14z m-351 -3 c0 -8 -5
-18 -12 -22 -8 -5 -9 -2 -5 10 6 14 3 17 -8 12 -9 -3 -13 -2 -10 4 9 15 35 12
35 -4z m52 -38 c-10 -10 -16 -8 -30 6 -16 17 -16 18 0 13 13 -5 16 -2 11 11
-5 16 -4 16 13 0 14 -14 16 -20 6 -30z m-272 -44 c21 -49 26 -71 9 -41 -16 27
-40 87 -35 87 3 0 14 -21 26 -46z m421 -11 c-11 -21 -20 -35 -21 -31 0 12 33
78 38 74 2 -2 -6 -21 -17 -43z m-3551 -23 c9 -16 8 -22 -4 -26 -21 -8 -36 3
-36 27 0 25 26 25 40 -1z m3491 -112 c-57 -125 -57 -122 -17 -140 18 -9 49
-30 68 -46 l33 -30 299 155 c164 85 299 153 301 151 2 -2 -131 -73 -296 -158
-164 -85 -299 -157 -299 -160 0 -3 7 -15 15 -27 8 -12 21 -45 29 -75 l13 -53
359 -5 359 -5 -356 -3 -356 -2 -11 -52 c-6 -29 -14 -62 -17 -74 -6 -19 33 -43
394 -239 221 -119 401 -219 401 -221 0 -3 -15 3 -32 12 -64 33 -733 396 -754
410 -20 12 -24 10 -49 -26 -15 -21 -44 -50 -65 -65 l-38 -27 59 -170 c33 -94
58 -173 56 -175 -3 -2 -31 73 -63 167 l-59 171 -40 -8 c-57 -11 -135 -6 -178
12 -89 37 -163 135 -175 231 l-7 59 -220 5 -220 6 221 2 222 2 7 37 c10 55 40
107 87 153 23 22 44 40 48 40 3 0 11 4 18 8 9 6 1 33 -33 112 -25 57 -43 105
-41 107 2 2 23 -43 48 -99 37 -85 48 -102 64 -99 10 1 52 4 92 5 l73 1 46 103
c25 56 48 101 50 99 2 -2 -14 -42 -36 -89z m-3482 56 c-12 -15 -10 -16 29 -9
29 5 42 3 42 -5 0 -6 -6 -10 -13 -8 -7 2 -13 -1 -13 -7 0 -5 7 -9 14 -7 8 2
11 -1 7 -7 -9 -15 -27 -14 -63 5 -41 20 -43 54 -4 54 12 0 12 -3 1 -16z m-66
-37 c-18 -11 -27 -3 -19 18 5 13 8 14 20 3 12 -11 12 -14 -1 -21z m80 -30 c7
4 6 -1 -2 -10 -14 -17 -41 -23 -41 -9 0 14 24 34 28 22 2 -5 9 -7 15 -3z m75
-8 c-10 -7 -8 -9 6 -9 11 0 17 -3 13 -6 -3 -4 4 -15 16 -25 25 -21 17 -25 -16
-8 -19 9 -18 7 3 -10 14 -11 20 -21 13 -21 -26 0 -43 13 -43 35 0 19 -5 23
-25 21 -14 -2 -24 -7 -23 -12 1 -5 9 -8 16 -6 8 2 11 -1 7 -7 -3 -6 -15 -11
-26 -11 -15 0 -20 6 -17 23 2 14 10 22 23 22 11 0 23 8 27 17 5 11 13 15 23
11 13 -5 14 -7 3 -14z m662 -103 c-19 -18 -39 -32 -45 -29 -6 2 -22 -1 -36 -6
-13 -5 -18 -10 -11 -10 18 -1 5 -21 -13 -21 -19 0 -15 41 5 56 16 12 62 26 93
29 10 1 20 5 24 9 3 3 9 6 12 6 3 0 -10 -15 -29 -34z m-490 14 c0 -5 -4 -9 -9
-7 -5 1 -8 -2 -7 -8 0 -5 9 -10 19 -9 23 1 22 -13 -3 -21 -27 -9 -40 1 -40 31
0 17 5 24 20 24 11 0 20 -4 20 -10z m-70 -19 c0 -5 -6 -12 -12 -14 -7 -3 -4
-6 7 -6 14 -1 16 -4 7 -13 -17 -17 -47 9 -31 28 13 16 29 18 29 5z m430 -36
c0 -8 -7 -15 -16 -15 -9 0 -23 -8 -30 -17 -14 -19 -19 -6 -6 13 6 9 41 33 50
34 1 0 2 -7 2 -15z m2333 -20 c37 -15 66 -29 64 -31 -4 -5 -148 53 -156 63 -7
7 1 5 92 -32z m-2253 15 c0 -5 -4 -10 -10 -10 -5 0 -10 5 -10 10 0 6 5 10 10
10 6 0 10 -4 10 -10z m-32 -40 c-7 -11 -17 -20 -22 -20 -5 0 -1 9 9 20 10 11
20 20 22 20 2 0 -2 -9 -9 -20z m-123 -1 c-4 -6 2 -13 14 -16 12 -3 21 -8 21
-12 0 -8 -107 -31 -250 -54 -8 -1 -17 3 -20 8 -3 6 25 12 70 15 74 5 120 21
120 41 0 6 7 9 15 5 8 -3 14 -2 14 2 -3 15 1 22 12 22 5 0 7 -5 4 -11z m160
-19 c3 -5 15 -10 25 -10 10 0 22 -5 26 -11 5 -9 -1 -10 -20 -5 -19 5 -44 -2
-91 -25 -102 -49 -90 -58 83 -62 l147 -3 -157 -2 c-152 -2 -158 -1 -158 18 0
17 -7 20 -40 20 -22 0 -40 5 -40 10 0 6 25 10 55 10 34 0 76 9 110 23 58 23
66 33 38 40 -16 4 -16 5 -1 6 9 0 20 -3 23 -9z m2365 -5 c14 -8 21 -14 15 -14
-5 0 -21 6 -35 14 -14 8 -20 14 -15 14 6 0 21 -6 35 -14z m-2613 -76 c-4 -15
-2 -19 9 -15 8 3 12 1 9 -4 -6 -9 -9 -24 -21 -100 l-5 -35 45 47 c25 26 46 43
46 38 0 -5 -26 -36 -58 -68 -47 -48 -58 -55 -54 -36 2 14 0 24 -7 24 -14 0
-10 72 5 91 6 8 14 26 16 41 4 22 1 28 -16 31 -15 3 -13 5 8 6 24 1 28 -2 23
-20z m-259 -26 c-71 -2 -185 -2 -255 0 -71 1 -13 3 127 3 140 0 198 -2 128 -3z
m220 -10 c-10 -2 -26 -2 -35 0 -10 3 -2 5 17 5 19 0 27 -2 18 -5z m895 -10
c-67 -2 -179 -2 -250 0 -70 1 -15 3 122 3 138 0 195 -2 128 -3z m1110 -20
c-67 -2 -179 -2 -250 0 -70 1 -15 3 122 3 138 0 195 -2 128 -3z m537 -204
c-63 -21 -119 -39 -125 -38 -14 1 207 77 225 77 8 0 -37 -17 -100 -39z m-1127
-73 c-13 -59 -8 -317 6 -344 11 -20 22 -62 36 -137 5 -29 5 -29 -6 -5 -6 14
-15 41 -20 60 -9 41 -3 -132 7 -193 3 -21 2 -68 -2 -105 l-9 -67 -6 105 c-4
58 -11 166 -17 240 -17 223 -18 407 -1 485 12 59 15 65 17 36 2 -19 0 -53 -5
-75z m832 -22 c-71 -24 -134 -44 -140 -43 -14 1 237 87 255 87 8 0 -43 -19
-115 -44z m576 -55 c-5 -13 -10 -19 -10 -12 -1 15 10 45 15 40 3 -2 0 -15 -5
-28z m-871 -40 c-63 -21 -119 -39 -125 -38 -14 1 207 77 225 77 8 0 -37 -17
-100 -39z m849 -38 c-7 -23 -14 -39 -16 -37 -3 2 1 23 8 45 7 23 14 39 16 37
3 -2 -1 -23 -8 -45z m-30 -100 c-7 -23 -14 -39 -16 -37 -3 2 1 23 8 45 7 23
14 39 16 37 3 -2 -1 -23 -8 -45z m-1259 -67 c9 -27 15 -33 21 -23 7 12 9 11 9
-1 0 -8 -4 -21 -9 -28 -6 -11 -9 -10 -14 5 -2 10 -12 35 -21 56 -10 22 -13 36
-7 33 5 -4 15 -23 21 -42z m1229 -33 c-7 -23 -14 -39 -16 -37 -3 2 1 23 8 45
7 23 14 39 16 37 3 -2 -1 -23 -8 -45z m461 -126 c16 -49 28 -90 26 -92 -2 -3
-16 33 -31 79 -16 46 -30 90 -33 98 -3 8 -2 12 2 9 3 -3 20 -46 36 -94z
m-1723 13 c-3 -8 -6 -5 -6 6 -1 11 2 17 5 13 3 -3 4 -12 1 -19z m-767 -49
c-79 -27 -149 -49 -155 -48 -14 1 267 97 285 97 8 0 -50 -22 -130 -49z m1987
-131 c-2 -18 -4 -4 -4 32 0 36 2 50 4 33 2 -18 2 -48 0 -65z m-2282 36 c-71
-24 -134 -44 -140 -43 -14 1 237 87 255 87 8 0 -43 -19 -115 -44z m2435 -3
c-6 -12 -8 -26 -5 -31 3 -6 2 -10 -4 -10 -6 0 -20 -17 -31 -37 -29 -52 -21
-29 14 45 17 34 32 60 34 58 2 -3 -1 -14 -8 -25z m420 -66 c16 -49 28 -90 26
-92 -2 -3 -16 33 -31 79 -16 46 -30 90 -33 98 -3 8 -2 12 2 9 3 -3 20 -46 36
-94z m-3165 -31 c-71 -24 -134 -44 -140 -43 -14 1 237 87 255 87 8 0 -43 -19
-115 -44z m2442 -6 c-3 -7 -5 -2 -5 12 0 14 2 19 5 13 2 -7 2 -19 0 -25z
m-1437 -55 c-33 -60 -86 -123 -104 -123 -5 0 -1 9 9 20 10 11 14 20 10 20 -5
0 10 18 32 40 23 22 50 56 59 75 9 20 19 34 22 31 2 -3 -10 -31 -28 -63z
m-1300 -34 c-79 -27 -149 -49 -155 -48 -14 1 267 97 285 97 8 0 -50 -22 -130
-49z m2240 12 c0 -4 -6 -8 -14 -8 -8 0 -12 6 -9 14 5 13 23 9 23 -6z m703 -68
c-13 -43 -26 -79 -28 -82 -9 -8 7 76 22 117 26 74 32 45 6 -35z m587 -18 c16
-49 28 -90 26 -92 -2 -3 -16 33 -31 79 -16 46 -30 90 -33 98 -3 8 -2 12 2 9 3
-3 20 -46 36 -94z m-550 31 c-17 -45 -10 -53 11 -13 11 20 22 37 24 37 8 0
-33 -78 -45 -85 -5 -3 -10 2 -10 13 0 23 21 85 26 79 3 -2 0 -16 -6 -31z
m-3275 -52 c-71 -24 -134 -44 -140 -43 -14 1 237 87 255 87 8 0 -43 -19 -115
-44z m2624 -64 c0 -8 -7 8 -15 35 -7 28 -13 57 -13 65 0 8 7 -7 15 -35 7 -27
13 -57 13 -65z m-62 78 c-3 -8 -6 -5 -6 6 -1 11 2 17 5 13 3 -3 4 -12 1 -19z
m-88 -38 c0 -9 -4 -8 -9 5 -5 11 -9 27 -9 35 0 9 4 8 9 -5 5 -11 9 -27 9 -35z
m45 -45 c4 -27 0 -19 -14 25 -10 36 -19 67 -19 70 2 15 28 -62 33 -95z m-65
35 c0 -9 -4 -8 -9 5 -5 11 -9 27 -9 35 0 9 4 8 9 -5 5 -11 9 -27 9 -35z m136
-118 c-10 -10 -35 95 -28 116 4 9 12 -10 20 -48 7 -35 10 -66 8 -68z m-375
-117 c4 2 5 28 2 56 -3 35 -1 50 6 45 14 -8 25 -61 18 -84 -7 -20 -52 -46 -60
-34 -8 14 -36 135 -32 139 2 2 12 -27 22 -66 10 -39 20 -68 22 -66 2 2 -6 48
-17 104 -12 55 -21 110 -20 123 1 13 12 -32 26 -99 14 -68 29 -121 33 -118z
m98 109 c11 -104 14 -112 94 -227 11 -16 18 -31 15 -33 -4 -4 -62 79 -102 146
-5 8 -13 40 -16 70 -18 142 -20 175 -11 160 5 -8 14 -60 20 -116z m-221 79
c-3 -10 -5 -4 -5 12 0 17 2 24 5 18 2 -7 2 -21 0 -30z m-30 -15 c-3 -8 -6 -5
-6 6 -1 11 2 17 5 13 3 -3 4 -12 1 -19z m1833 -83 c16 -49 28 -90 26 -92 -2
-3 -16 33 -31 79 -16 46 -30 90 -33 98 -3 8 -2 12 2 9 3 -3 20 -46 36 -94z
m-1772 -55 c0 -8 -6 8 -14 35 -7 28 -13 61 -13 75 0 14 7 -2 14 -35 8 -33 14
-67 13 -75z m-51 88 c-3 -7 -5 -2 -5 12 0 14 2 19 5 13 2 -7 2 -19 0 -25z
m460 10 c-3 -8 -6 -5 -6 6 -1 11 2 17 5 13 3 -3 4 -12 1 -19z m-439 -98 c0 -9
-3 -7 -8 5 -5 11 -8 29 -8 40 0 16 2 15 8 -5 4 -14 8 -32 8 -40z m559 28 c-3
-7 -5 -2 -5 12 0 14 2 19 5 13 2 -7 2 -19 0 -25z m20 -80 c17 -32 27 -55 22
-52 -10 6 -59 98 -59 110 0 11 4 5 37 -58z m-366 -124 c6 -8 10 -17 7 -20 -7
-7 -32 34 -46 75 -19 55 -13 61 8 8 10 -27 24 -55 31 -63z m228 36 c0 -10 -3
-8 -9 5 -12 27 -12 43 0 25 5 -8 9 -22 9 -30z m141 -50 c20 -6 21 -8 5 -8 -11
-1 -38 3 -60 7 l-40 9 35 0 c19 0 46 -4 60 -8z m-87 -77 c32 -54 67 -127 67
-142 0 -3 -15 21 -33 54 -18 33 -43 76 -55 95 -20 33 -27 50 -18 50 2 0 19
-26 39 -57z m-107 -16 c6 -19 21 -48 89 -163 l17 -29 -23 28 c-32 38 -126 215
-106 198 9 -7 19 -23 23 -34z m-202 -58 c-8 -13 27 -160 67 -282 16 -48 29
-93 29 -100 -1 -25 -61 142 -85 236 -26 100 -30 138 -18 150 10 11 15 8 7 -4z
m347 -206 c13 -16 12 -17 -3 -4 -17 13 -22 21 -14 21 2 0 10 -8 17 -17z m-867
-87 c9 -38 30 -100 46 -139 16 -39 28 -72 26 -74 -8 -9 -77 160 -86 212 -6 33
-13 69 -16 80 -4 16 -3 17 5 5 5 -9 17 -46 25 -84z m1017 18 c33 -43 42 -63
41 -91 -1 -20 -5 -40 -10 -45 -4 -4 -6 9 -4 30 3 30 -4 49 -37 100 -22 34 -39
62 -36 62 2 0 23 -25 46 -56z m-2257 -56 c-8 -23 -15 -58 -16 -79 -2 -46 -18
-42 -18 4 0 30 33 117 44 117 3 0 -1 -19 -10 -42z"/>
<path d="M2441 4664 c0 -11 3 -14 6 -6 3 7 2 16 -1 19 -3 4 -6 -2 -5 -13z"/>
<path d="M2162 4630 c1 -53 -7 -59 -37 -30 -19 18 -28 21 -37 12 -9 -9 -7 -13
5 -18 23 -8 22 -25 0 -18 -14 4 -15 3 -5 -4 8 -5 13 -12 12 -16 -1 -4 1 -12 3
-19 4 -8 6 -6 6 4 3 48 51 39 51 -10 0 -20 3 -22 9 -12 6 9 6 22 0 34 -8 13
-6 25 5 42 12 18 13 31 6 50 -14 36 -19 31 -18 -15z"/>
<path d="M2471 4644 c0 -11 3 -14 6 -6 3 7 2 16 -1 19 -3 4 -6 -2 -5 -13z"/>
<path d="M2513 4645 c-3 -9 -3 -18 -1 -21 3 -3 8 4 11 16 6 23 -1 27 -10 5z"/>
<path d="M2320 4635 c0 -8 5 -15 10 -15 6 0 10 7 10 15 0 8 -4 15 -10 15 -5 0
-10 -7 -10 -15z"/>
<path d="M2536 4634 c-4 -9 -4 -19 -1 -22 2 -3 7 3 11 12 4 9 4 19 1 22 -2 3
-7 -3 -11 -12z"/>
<path d="M2596 4624 c-3 -9 -2 -23 4 -32 7 -14 9 -10 10 16 0 35 -5 41 -14 16z"/>
<path d="M2401 4604 c0 -11 3 -14 6 -6 3 7 2 16 -1 19 -3 4 -6 -2 -5 -13z"/>
<path d="M2433 4594 c3 -18 1 -24 -9 -20 -10 4 -14 -3 -15 -22 0 -20 -2 -23
-7 -10 -4 11 -12 14 -20 9 -19 -11 -4 -40 18 -34 10 3 21 0 25 -6 10 -16 -4
-51 -21 -51 -8 0 -14 -6 -14 -14 0 -9 7 -12 20 -9 15 4 20 0 20 -16 0 -14 5
-19 15 -15 8 4 15 1 15 -5 0 -19 28 -12 35 9 9 29 -2 42 -25 30 -10 -5 -21
-10 -24 -10 -13 0 -5 48 9 60 19 16 49 5 41 -16 -3 -8 -2 -12 4 -9 16 10 11
43 -7 54 -16 9 -16 13 -5 32 8 13 10 24 4 28 -5 3 -12 13 -16 21 -3 8 -4 5 -2
-7 6 -31 -12 -29 -24 2 -12 33 -24 32 -17 -1z m35 -56 c-4 -29 -25 -35 -22 -6
3 29 2 28 15 28 6 0 9 -10 7 -22z"/>
<path d="M2560 4596 c0 -22 3 -27 11 -19 8 8 8 16 0 30 -9 16 -10 14 -11 -11z"/>
<path d="M2381 4584 c0 -11 3 -14 6 -6 3 7 2 16 -1 19 -3 4 -6 -2 -5 -13z"/>
<path d="M2180 4567 c0 -23 17 -47 32 -47 4 0 8 9 8 20 0 14 -5 18 -17 13 -13
-5 -15 -2 -11 15 4 12 2 22 -3 22 -5 0 -9 -10 -9 -23z"/>
<path d="M2347 4583 c-4 -3 -7 -19 -7 -34 0 -15 -5 -31 -11 -35 -8 -4 -8 -9 0
-17 16 -16 14 -42 -4 -57 -9 -7 -13 -15 -11 -18 6 -5 36 23 36 34 0 4 7 16 17
26 15 16 15 20 0 36 -10 11 -13 27 -10 45 5 27 2 33 -10 20z"/>
<path d="M2520 4573 c0 -13 29 -38 35 -31 3 3 -4 13 -15 23 -11 10 -20 13 -20
8z"/>
<path d="M2616 4563 c-6 -14 -5 -15 5 -6 7 7 10 15 7 18 -3 3 -9 -2 -12 -12z"/>
<path d="M1620 4560 c0 -5 5 -10 11 -10 5 0 7 5 4 10 -3 6 -8 10 -11 10 -2 0
-4 -4 -4 -10z"/>
<path d="M2576 4554 c-4 -9 -4 -19 -1 -22 2 -3 7 3 11 12 4 9 4 19 1 22 -2 3
-7 -3 -11 -12z"/>
<path d="M1835 4550 c3 -5 11 -10 16 -10 6 0 7 5 4 10 -3 6 -11 10 -16 10 -6
0 -7 -4 -4 -10z"/>
<path d="M2131 4544 c0 -11 3 -14 6 -6 3 7 2 16 -1 19 -3 4 -6 -2 -5 -13z"/>
<path d="M2707 4553 c-4 -3 -7 -11 -7 -17 0 -6 5 -5 12 2 6 6 9 14 7 17 -3 3
-9 2 -12 -2z"/>
<path d="M1785 4520 c4 -19 8 -45 10 -58 1 -13 7 -28 14 -35 8 -8 11 -4 11 15
0 15 5 28 12 30 8 3 8 9 -1 24 -11 17 -12 17 -7 1 4 -12 2 -17 -6 -14 -7 2
-13 13 -13 25 0 12 -6 27 -13 34 -11 11 -12 6 -7 -22z"/>
<path d="M1940 4535 c0 -8 -4 -15 -10 -15 -5 0 -10 -8 -10 -17 1 -17 1 -17 11
-1 9 16 12 16 45 -2 33 -19 35 -19 41 -3 3 10 8 23 10 28 3 6 -2 2 -10 -8 -16
-19 -47 -14 -47 8 0 7 -7 15 -15 19 -9 3 -15 0 -15 -9z"/>
<path d="M2660 4541 c0 -6 4 -13 10 -16 6 -3 7 1 4 9 -7 18 -14 21 -14 7z"/>
<path d="M1680 4521 c0 -13 28 -33 33 -23 3 4 -3 13 -14 20 -10 7 -19 8 -19 3z"/>
<path d="M1867 4507 c3 -15 9 -27 14 -27 13 0 11 13 -5 35 -13 18 -14 18 -9
-8z"/>
<path d="M2180 4516 c0 -2 11 -24 25 -47 23 -41 27 -35 10 18 -6 18 -35 42
-35 29z"/>
<path d="M2527 4503 c-4 -3 -7 -11 -7 -17 0 -6 5 -5 12 2 6 6 9 14 7 17 -3 3
-9 2 -12 -2z"/>
<path d="M2681 4494 c0 -11 3 -14 6 -6 3 7 2 16 -1 19 -3 4 -6 -2 -5 -13z"/>
<path d="M2715 4500 c-3 -5 -2 -10 4 -10 5 0 13 5 16 10 3 6 2 10 -4 10 -5 0
-13 -4 -16 -10z"/>
<path d="M1470 4486 c0 -8 5 -18 10 -21 6 -3 10 1 10 9 0 8 -4 18 -10 21 -5 3
-10 -1 -10 -9z"/>
<path d="M1760 4486 c0 -9 5 -16 10 -16 6 0 10 4 10 9 0 6 -4 13 -10 16 -5 3
-10 -1 -10 -9z"/>
<path d="M2054 4461 c0 -21 4 -37 9 -34 10 6 9 61 -2 67 -5 3 -8 -12 -7 -33z"/>
<path d="M2395 4490 c-3 -5 -1 -10 4 -10 6 0 11 5 11 10 0 6 -2 10 -4 10 -3 0
-8 -4 -11 -10z"/>
<path d="M2274 4473 c3 -7 1 -15 -5 -18 -5 -4 -7 -11 -4 -16 7 -11 28 8 37 33
5 12 2 16 -13 15 -11 -1 -17 -7 -15 -14z"/>
<path d="M2466 4481 c-4 -7 -5 -15 -2 -18 9 -9 19 4 14 18 -4 11 -6 11 -12 0z"/>
<path d="M1987 4435 c8 -25 17 -44 20 -41 7 6 -16 74 -27 81 -5 3 -2 -15 7
-40z"/>
<path d="M2241 4464 c0 -11 3 -14 6 -6 3 7 2 16 -1 19 -3 4 -6 -2 -5 -13z"/>
<path d="M1452 4450 c0 -14 2 -19 5 -12 2 6 2 18 0 25 -3 6 -5 1 -5 -13z"/>
<path d="M1701 4444 c0 -11 3 -14 6 -6 3 7 2 16 -1 19 -3 4 -6 -2 -5 -13z"/>
<path d="M2140 4450 c0 -5 5 -10 10 -10 6 0 10 5 10 10 0 6 -4 10 -10 10 -5 0
-10 -4 -10 -10z"/>
<path d="M2186 4443 c-6 -14 -5 -15 5 -6 7 7 10 15 7 18 -3 3 -9 -2 -12 -12z"/>
<path d="M1627 4429 c4 -13 8 -18 11 -10 2 7 -1 18 -6 23 -8 8 -9 4 -5 -13z"/>
<path d="M1836 4437 c3 -10 9 -15 12 -12 3 3 0 11 -7 18 -10 9 -11 8 -5 -6z"/>
<path d="M1914 4416 c2 -49 10 -52 14 -5 1 21 -1 39 -6 39 -5 0 -8 -16 -8 -34z"/>
<path d="M1770 4431 c0 -5 5 -13 10 -16 6 -3 10 -2 10 4 0 5 -4 13 -10 16 -5
3 -10 2 -10 -4z"/>
<path d="M1512 4415 c-1 -11 5 -29 13 -39 13 -17 15 -18 15 -3 0 9 -4 17 -9
17 -5 0 -12 10 -14 23 -4 19 -4 19 -5 2z"/>
<path d="M2340 4408 c0 -14 7 -28 15 -32 19 -7 19 13 0 38 -14 19 -15 19 -15
-6z"/>
<path d="M1471 4404 c0 -11 3 -14 6 -6 3 7 2 16 -1 19 -3 4 -6 -2 -5 -13z"/>
<path d="M1695 4410 c3 -5 8 -10 11 -10 2 0 4 5 4 10 0 6 -5 10 -11 10 -5 0
-7 -4 -4 -10z"/>
<path d="M2031 4404 c0 -11 3 -14 6 -6 3 7 2 16 -1 19 -3 4 -6 -2 -5 -13z"/>
<path d="M2397 4414 c-4 -4 -7 -14 -7 -23 0 -11 3 -12 11 -4 6 6 10 16 7 23
-2 6 -7 8 -11 4z"/>
<path d="M1422 4398 c6 -18 28 -21 28 -4 0 9 -7 16 -16 16 -9 0 -14 -5 -12
-12z"/>
<path d="M1970 4391 c0 -12 5 -21 10 -21 6 0 10 6 10 14 0 8 -4 18 -10 21 -5
3 -10 -3 -10 -14z"/>
<path d="M2507 4403 c-10 -9 -9 -23 2 -23 5 0 11 7 15 15 5 15 -5 20 -17 8z"/>
<path d="M1670 4383 c0 -12 5 -25 10 -28 13 -8 13 15 0 35 -8 12 -10 11 -10
-7z"/>
<path d="M2305 4390 c3 -5 8 -10 11 -10 2 0 4 5 4 10 0 6 -5 10 -11 10 -5 0
-7 -4 -4 -10z"/>
<path d="M2260 4380 c0 -5 7 -10 16 -10 8 0 12 5 9 10 -3 6 -10 10 -16 10 -5
0 -9 -4 -9 -10z"/>
<path d="M2011 4364 c0 -11 3 -14 6 -6 3 7 2 16 -1 19 -3 4 -6 -2 -5 -13z"/>
<path d="M1566 4357 c3 -10 9 -15 12 -12 3 3 0 11 -7 18 -10 9 -11 8 -5 -6z"/>
<path d="M1650 4350 c6 -11 13 -20 16 -20 2 0 0 9 -6 20 -6 11 -13 20 -16 20
-2 0 0 -9 6 -20z"/>
<path d="M1740 4348 c0 -19 2 -20 10 -8 13 19 13 30 0 30 -5 0 -10 -10 -10
-22z"/>
<path d="M2201 4354 c0 -11 3 -14 6 -6 3 7 2 16 -1 19 -3 4 -6 -2 -5 -13z"/>
<path d="M2380 4360 c0 -5 -7 -7 -15 -4 -11 4 -13 2 -9 -9 3 -9 13 -13 26 -9
20 5 21 2 15 -43 -7 -48 -7 -48 13 -30 11 10 20 14 20 9 0 -5 6 2 13 16 8 14
20 24 30 22 11 -2 15 2 11 11 -3 9 -13 13 -25 10 -10 -3 -19 0 -19 6 0 6 -4
11 -10 11 -5 0 -7 -7 -4 -15 4 -8 1 -15 -5 -15 -6 0 -13 11 -17 25 -6 24 -24
35 -24 15z"/>
<path d="M2455 4360 c-3 -5 -1 -10 4 -10 6 0 11 5 11 10 0 6 -2 10 -4 10 -3 0
-8 -4 -11 -10z"/>
<path d="M2624 4334 c2 -21 4 -43 5 -48 1 -5 10 -1 21 9 11 10 17 21 12 24 -4
3 -16 17 -25 30 -16 24 -16 24 -13 -15z m26 -18 c0 -3 -4 -8 -10 -11 -5 -3
-10 -1 -10 4 0 6 5 11 10 11 6 0 10 -2 10 -4z"/>
<path d="M1975 4350 c-3 -5 -1 -10 4 -10 6 0 11 5 11 10 0 6 -2 10 -4 10 -3 0
-8 -4 -11 -10z"/>
<path d="M2296 4351 c-4 -6 -3 -18 2 -27 8 -15 10 -14 16 2 8 20 -8 42 -18 25z"/>
<path d="M2500 4344 c0 -8 5 -12 10 -9 6 3 10 10 10 16 0 5 -4 9 -10 9 -5 0
-10 -7 -10 -16z"/>
<path d="M1606 4335 c4 -8 11 -15 16 -15 6 0 5 6 -2 15 -7 8 -14 15 -16 15 -2
0 -1 -7 2 -15z"/>
<path d="M1940 4341 c0 -5 5 -13 10 -16 6 -3 10 -2 10 4 0 5 -4 13 -10 16 -5
3 -10 2 -10 -4z"/>
<path d="M2244 4310 c3 -44 16 -49 16 -7 0 21 -4 37 -9 37 -5 0 -8 -13 -7 -30z"/>
<path d="M1697 4309 c4 -13 8 -18 11 -10 2 7 -1 18 -6 23 -8 8 -9 4 -5 -13z"/>
<path d="M2592 4310 c0 -14 2 -19 5 -12 2 6 2 18 0 25 -3 6 -5 1 -5 -13z"/>
<path d="M1987 4300 c3 -11 7 -20 8 -20 1 0 5 9 8 20 3 12 0 20 -8 20 -8 0
-11 -8 -8 -20z"/>
<path d="M2497 4303 c-4 -3 -7 -11 -7 -17 0 -6 5 -5 12 2 6 6 9 14 7 17 -3 3
-9 2 -12 -2z"/>
<path d="M1910 4255 c0 -11 8 -29 17 -40 15 -19 15 -19 8 10 -8 37 -25 57 -25
30z"/>
<path d="M1970 4263 c0 -5 7 -18 15 -29 13 -18 14 -18 8 4 -5 22 -23 41 -23
25z"/>
<path d="M2284 4262 c5 -8 0 -12 -13 -12 -12 0 -21 -7 -21 -15 0 -12 4 -13 19
-6 10 6 21 7 25 4 3 -3 6 1 6 10 0 9 -5 19 -12 23 -7 4 -8 3 -4 -4z"/>
<path d="M2030 4237 c0 -13 -4 -27 -9 -32 -14 -14 -26 -95 -14 -95 14 0 47 39
40 46 -3 4 0 15 7 26 16 22 10 64 -10 72 -9 4 -14 -2 -14 -17z"/>
<path d="M2180 4239 c0 -11 5 -17 10 -14 6 3 10 13 10 21 0 8 -4 14 -10 14 -5
0 -10 -9 -10 -21z"/>
<path d="M2211 4214 c0 -11 3 -14 6 -6 3 7 2 16 -1 19 -3 4 -6 -2 -5 -13z"/>
<path d="M1970 4211 c0 -6 4 -13 10 -16 6 -3 7 1 4 9 -7 18 -14 21 -14 7z"/>
<path d="M2270 4204 c0 -13 -3 -14 -14 -5 -11 9 -16 9 -23 -2 -4 -7 -16 -16
-25 -20 -10 -3 -18 -12 -17 -19 0 -10 2 -10 6 0 11 27 22 9 27 -45 3 -32 8
-79 12 -106 4 -36 2 -54 -11 -73 -9 -14 -19 -23 -22 -20 -4 3 2 15 12 26 13
14 16 28 11 52 -4 18 -9 59 -12 90 -7 62 -22 68 -49 19 -14 -25 -15 -25 -10
19 l5 45 -20 -55 c-11 -30 -22 -64 -25 -75 -2 -11 -9 -35 -16 -53 -11 -31 -10
-36 15 -60 l27 -27 -16 37 c-21 51 -18 71 4 29 l18 -34 12 35 c7 20 9 49 5 64
l-6 29 17 -23 c15 -21 15 -26 -1 -74 -16 -48 -16 -53 0 -83 l17 -31 38 37 c53
49 63 71 51 104 -14 36 -12 84 4 138 8 26 10 49 5 52 -4 3 -6 12 -3 19 3 8 1
17 -5 21 -6 3 -11 -1 -11 -11z"/>
<path d="M1890 4201 c0 -6 4 -13 10 -16 6 -3 7 1 4 9 -7 18 -14 21 -14 7z"/>
<path d="M2420 4203 c0 -4 5 -15 10 -23 8 -13 10 -13 10 2 0 9 -4 20 -10 23
-5 3 -10 3 -10 -2z"/>
<path d="M2180 4189 c0 -5 5 -7 10 -4 6 3 10 8 10 11 0 2 -4 4 -10 4 -5 0 -10
-5 -10 -11z"/>
<path d="M2066 4175 c-11 -8 -15 -15 -9 -15 6 0 16 7 23 15 16 19 11 19 -14 0z"/>
<path d="M2112 4137 c-20 -55 -13 -76 8 -28 22 47 24 61 12 61 -4 0 -13 -15
-20 -33z"/>
<path d="M1920 4151 c0 -5 5 -13 10 -16 6 -3 10 -2 10 4 0 5 -4 13 -10 16 -5
3 -10 2 -10 -4z"/>
<path d="M1962 4089 c2 -7 10 -15 17 -17 8 -3 12 1 9 9 -2 7 -10 15 -17 17 -8
3 -12 -1 -9 -9z"/>
<path d="M1630 4075 c0 -15 18 -40 24 -34 3 3 -1 14 -9 25 -8 10 -14 15 -15 9z"/>
<path d="M1776 4065 c-11 -29 -7 -36 17 -33 14 2 22 10 22 23 0 24 -30 32 -39
10z"/>
<path d="M2625 4049 c-9 -17 -15 -33 -13 -35 3 -2 12 12 21 31 21 43 13 47 -8
4z"/>
<path d="M1822 4027 c-7 -8 -8 -35 -2 -79 10 -84 16 -95 41 -72 24 22 25 95 2
135 -19 32 -26 35 -41 16z"/>
<path d="M2012 3805 c-12 -15 -22 -33 -22 -40 0 -6 -14 -40 -31 -74 -36 -71
-34 -83 15 -159 28 -44 36 -67 41 -128 l7 -74 19 24 c10 13 23 44 29 70 6 26
20 60 32 76 29 40 20 106 -30 234 l-39 98 -21 -27z m28 -111 c23 -9 39 -18 37
-20 -2 -3 -24 4 -48 15 -54 24 -45 27 11 5z"/>
<path d="M1974 3805 c-10 -26 1 -35 13 -10 6 14 7 25 2 25 -5 0 -12 -7 -15
-15z"/>
<path d="M1640 3791 c0 -5 20 -21 45 -35 25 -15 45 -34 45 -42 0 -8 5 -12 10
-9 20 12 10 51 -17 66 -36 21 -83 32 -83 20z"/>
<path d="M1782 3765 c-7 -14 -12 -32 -12 -40 0 -7 -11 -22 -24 -32 -18 -13
-26 -32 -31 -70 -5 -38 -4 -53 5 -53 32 0 69 -43 89 -102 11 -34 19 -63 18
-65 -2 -1 -14 21 -27 50 -27 59 -57 97 -77 97 -7 0 -18 8 -25 19 -9 15 -17 17
-41 10 -17 -5 -35 -13 -41 -19 -5 -5 -22 -10 -37 -10 -25 0 -26 -3 -32 -67 -6
-61 -4 -74 20 -121 17 -33 34 -54 47 -56 155 -29 195 -41 266 -76 30 -15 71
-32 91 -38 33 -9 38 -8 47 12 5 12 6 29 2 37 -4 8 -13 63 -20 123 -10 100 -15
115 -51 175 -25 42 -39 74 -36 89 3 18 2 20 -10 11 -7 -7 -16 -9 -20 -6 -3 4
-12 -1 -19 -10 -11 -16 -16 -13 -53 27 -22 25 -40 48 -41 53 -1 18 21 4 55
-35 34 -39 36 -40 21 -11 -9 18 -16 43 -16 57 0 31 -17 76 -28 76 -5 0 -14
-11 -20 -25z m166 -466 c18 -12 38 -31 44 -42 10 -19 8 -19 -21 4 -17 13 -52
41 -77 62 -25 20 -49 37 -54 37 -4 0 -10 7 -14 15 -3 8 16 -1 42 -20 26 -20
62 -45 80 -56z"/>
<path d="M1846 3710 c3 -14 11 -32 16 -40 6 -10 7 -7 2 10 -3 14 -11 32 -16
40 -6 10 -7 7 -2 -10z"/>
<path d="M1930 3685 c-7 -9 -10 -18 -7 -21 3 -3 10 4 17 15 13 25 8 27 -10 6z"/>
<path d="M1680 3625 c-7 -8 -27 -15 -45 -15 -35 0 -96 -36 -102 -60 -3 -10 -1
-9 7 3 6 9 23 17 38 17 15 0 36 7 46 15 11 8 30 15 43 15 13 0 26 7 30 15 8
22 -2 28 -17 10z"/>
<path d="M3356 4453 c-6 -14 -5 -15 5 -6 7 7 10 15 7 18 -3 3 -9 -2 -12 -12z"/>
<path d="M3326 4404 c-4 -10 -1 -14 6 -12 15 5 23 28 10 28 -5 0 -13 -7 -16
-16z"/>
<path d="M1360 4343 c0 -5 5 -15 10 -23 8 -12 10 -11 10 8 0 12 -4 22 -10 22
-5 0 -10 -3 -10 -7z"/>
<path d="M3044 4295 c-4 -14 -3 -29 0 -33 9 -8 26 18 26 41 0 26 -19 20 -26
-8z"/>
<path d="M3003 4280 c1 -16 5 -30 10 -30 11 0 9 48 -3 55 -5 3 -8 -7 -7 -25z"/>
<path d="M3065 4249 c-4 -6 -5 -13 -2 -16 7 -7 27 6 27 18 0 12 -17 12 -25 -2z"/>
<path d="M2863 4288 c0 -13 1 -17 4 -9 5 11 7 11 15 0 7 -11 8 -9 6 5 -4 28
-24 30 -25 4z"/>
<path d="M3252 4208 c5 -15 28 -23 28 -10 0 5 -7 13 -16 16 -10 4 -14 1 -12
-6z"/>
<path d="M3383 4168 c-18 -24 -24 -38 -16 -38 10 0 36 40 30 46 -2 3 -9 -1
-14 -8z"/>
<path d="M3336 4134 c-4 -9 -4 -19 -1 -22 2 -3 7 3 11 12 4 9 4 19 1 22 -2 3
-7 -3 -11 -12z"/>
<path d="M3395 4130 c-3 -5 -1 -10 4 -10 6 0 11 5 11 10 0 6 -2 10 -4 10 -3 0
-8 -4 -11 -10z"/>
<path d="M3355 4100 c-3 -5 -1 -10 4 -10 6 0 11 5 11 10 0 6 -2 10 -4 10 -3 0
-8 -4 -11 -10z"/>
<path d="M1571 4228 c0 -7 4 -22 9 -33 7 -17 9 -15 9 13 1 17 -3 32 -9 32 -5
0 -10 -6 -9 -12z"/>
<path d="M1611 4204 c0 -11 3 -14 6 -6 3 7 2 16 -1 19 -3 4 -6 -2 -5 -13z"/>
<path d="M1560 4171 c0 -5 5 -13 10 -16 6 -3 10 -2 10 4 0 5 -4 13 -10 16 -5
3 -10 2 -10 -4z"/>
<path d="M1600 4161 c0 -5 5 -13 10 -16 6 -3 10 -2 10 4 0 5 -4 13 -10 16 -5
3 -10 2 -10 -4z"/>
<path d="M1460 4150 c-8 -5 -11 -12 -7 -16 4 -4 13 -2 19 4 15 15 7 24 -12 12z"/>
<path d="M2715 4210 c-3 -5 1 -10 9 -10 8 0 18 5 21 10 3 6 -1 10 -9 10 -8 0
-18 -4 -21 -10z"/>
<path d="M3180 4130 c0 -11 4 -20 10 -20 5 0 14 9 20 20 9 17 8 20 -10 20 -13
0 -20 -7 -20 -20z"/>
<path d="M1242 4036 c2 -16 9 -31 16 -34 17 -5 15 20 -3 44 -15 18 -15 18 -13
-10z"/>
<path d="M1290 4020 c0 -19 3 -21 12 -12 9 9 9 15 0 24 -9 9 -12 7 -12 -12z"/>
<path d="M1320 4020 c0 -5 7 -7 15 -4 8 4 15 8 15 10 0 2 -7 4 -15 4 -8 0 -15
-4 -15 -10z"/>
<path d="M1221 3979 c11 -11 23 -18 26 -15 9 8 -17 36 -33 36 -10 0 -7 -7 7
-21z"/>
<path d="M3890 3969 c0 -5 5 -7 10 -4 6 3 10 8 10 11 0 2 -4 4 -10 4 -5 0 -10
-5 -10 -11z"/>
<path d="M3906 3854 c-3 -8 -9 -13 -14 -10 -4 2 -12 -7 -19 -20 -6 -13 -9 -24
-7 -24 5 0 64 62 64 66 0 11 -19 2 -24 -12z"/>
<path d="M3985 3800 c-3 -5 -2 -10 4 -10 5 0 13 5 16 10 3 6 2 10 -4 10 -5 0
-13 -4 -16 -10z"/>
<path d="M3855 3765 c-5 -11 -10 -24 -13 -30 -3 -5 3 -3 13 7 9 9 15 22 12 30
-3 9 -7 7 -12 -7z"/>
<path d="M3805 3710 c-3 -5 -2 -10 4 -10 5 0 13 5 16 10 3 6 2 10 -4 10 -5 0
-13 -4 -16 -10z"/>
<path d="M3853 3700 c-12 -10 -24 -16 -27 -12 -4 3 -4 -2 0 -12 6 -16 9 -16
32 8 30 30 25 45 -5 16z"/>
<path d="M3806 3651 c-9 -13 22 -42 39 -37 6 1 11 11 13 22 3 16 1 16 -7 4 -9
-13 -12 -12 -24 4 -10 14 -16 16 -21 7z"/>
<path d="M1105 3890 c-4 -6 5 -10 20 -10 15 0 24 4 20 10 -3 6 -12 10 -20 10
-8 0 -17 -4 -20 -10z"/>
<path d="M1145 3860 c-3 -5 -1 -10 4 -10 6 0 11 5 11 10 0 6 -2 10 -4 10 -3 0
-8 -4 -11 -10z"/>
<path d="M1172 3850 c-6 -11 -12 -22 -12 -25 0 -11 20 6 30 26 14 25 -2 25
-18 -1z"/>
<path d="M893 3716 c10 -8 24 -22 30 -30 10 -14 12 -13 12 9 0 14 -2 25 -5 26
-3 0 -16 2 -30 5 -23 3 -24 3 -7 -10z"/>
<path d="M952 3700 c0 -19 2 -27 5 -17 2 9 2 25 0 35 -3 9 -5 1 -5 -18z"/>
<path d="M905 3660 c3 -5 8 -10 11 -10 2 0 4 5 4 10 0 6 -5 10 -11 10 -5 0 -7
-4 -4 -10z"/>
<path d="M937 3653 c-4 -3 -7 -11 -7 -17 0 -6 5 -5 12 2 6 6 9 14 7 17 -3 3
-9 2 -12 -2z"/>
<path d="M1071 3703 c0 -25 1 -26 9 -8 12 27 12 35 0 35 -5 0 -10 -12 -9 -27z"/>
<path d="M1809 1863 c-13 -16 -12 -17 4 -4 9 7 17 15 17 17 0 8 -8 3 -21 -13z"/>
<path d="M2511 1574 c0 -11 3 -14 6 -6 3 7 2 16 -1 19 -3 4 -6 -2 -5 -13z"/>
<path d="M2867 4686 c7 -35 27 -39 54 -10 l22 24 -25 0 c-15 0 -33 3 -41 6
-11 4 -13 -1 -10 -20z"/>
<path d="M2819 4698 c-6 -12 -5 -48 1 -48 4 0 7 11 6 25 -1 22 -3 30 -7 23z"/>
<path d="M2897 4620 c-25 -38 -24 -53 1 -28 9 9 12 9 12 -1 0 -15 25 -41 39
-41 7 0 7 8 2 23 -5 14 -5 30 0 40 7 11 6 17 0 17 -6 0 -14 -7 -19 -16 -7 -12
-11 -13 -16 -5 -4 7 -2 19 5 27 6 8 10 17 7 19 -2 3 -16 -13 -31 -35z"/>
<path d="M2849 4645 c-1 -3 -2 -8 -3 -12 -1 -5 -5 -14 -10 -22 -6 -9 -5 -12 5
-9 8 3 15 14 15 26 1 19 -4 31 -7 17z"/>
<path d="M2985 4619 c-4 -6 -5 -12 -2 -15 2 -3 7 2 10 11 7 17 1 20 -8 4z"/>
<path d="M3057 4584 c-4 -4 -7 -19 -6 -33 l0 -26 10 24 c10 26 8 47 -4 35z"/>
<path d="M2907 4553 c-4 -3 -7 -11 -7 -17 0 -6 5 -5 12 2 6 6 9 14 7 17 -3 3
-9 2 -12 -2z"/>
<path d="M3220 4509 c-7 -11 -10 -23 -7 -25 2 -2 9 7 15 21 14 30 7 33 -8 4z"/>
<path d="M3111 4463 c-10 -26 -10 -27 4 -9 8 11 15 23 15 28 0 15 -7 8 -19
-19z"/>
<path d="M3171 4474 c0 -11 3 -14 6 -6 3 7 2 16 -1 19 -3 4 -6 -2 -5 -13z"/>
<path d="M3226 4463 c-6 -14 -5 -15 5 -6 7 7 10 15 7 18 -3 3 -9 -2 -12 -12z"/>
<path d="M3255 4460 c-10 -11 -15 -20 -11 -20 4 0 16 9 28 20 12 11 17 20 11
20 -5 0 -18 -9 -28 -20z"/>
<path d="M3052 4440 c0 -14 2 -19 5 -12 2 6 2 18 0 25 -3 6 -5 1 -5 -13z"/>
<path d="M3082 4435 c0 -16 2 -22 5 -12 2 9 2 23 0 30 -3 6 -5 -1 -5 -18z"/>
<path d="M3200 4444 c8 -10 15 -20 16 -22 1 -2 4 1 7 5 3 5 -4 15 -16 23 -21
12 -21 12 -7 -6z"/>
<path d="M3461 4417 c-13 -21 -12 -21 5 -5 10 10 16 20 13 22 -3 3 -11 -5 -18
-17z"/>
<path d="M3496 4424 c-9 -24 -7 -28 9 -14 17 14 20 30 6 30 -5 0 -12 -7 -15
-16z"/>
<path d="M2997 4413 c-4 -3 -7 -11 -7 -17 0 -6 5 -5 12 2 6 6 9 14 7 17 -3 3
-9 2 -12 -2z"/>
<path d="M3147 4414 c-3 -6 0 -28 8 -50 14 -37 14 -38 14 -9 0 37 -13 72 -22
59z"/>
<path d="M3213 4403 c-23 -15 -34 -71 -12 -58 6 4 8 10 5 13 -4 3 6 18 21 34
29 30 22 36 -14 11z"/>
<path d="M3446 4374 c-4 -9 -4 -19 -1 -22 2 -3 7 3 11 12 4 9 4 19 1 22 -2 3
-7 -3 -11 -12z"/>
<path d="M3123 4364 c-3 -8 -1 -20 6 -27 8 -8 11 -4 11 16 0 30 -7 35 -17 11z"/>
<path d="M3390 4340 c-6 -12 -9 -24 -7 -27 3 -2 11 5 17 17 6 12 9 24 7 27 -3
2 -11 -5 -17 -17z"/>
<path d="M3474 4352 c-5 -4 -9 -14 -9 -22 1 -8 -5 -26 -13 -40 l-15 -25 22 19
c12 11 20 25 17 32 -2 6 1 17 7 23 13 13 6 23 -9 13z"/>
<path d="M3220 4330 c0 -22 20 -26 38 -8 19 19 14 28 -13 28 -18 0 -25 -5 -25
-20z"/>
<path d="M1277 4334 c-4 -4 -7 -14 -7 -23 0 -11 3 -12 11 -4 6 6 10 16 7 23
-2 6 -7 8 -11 4z"/>
<path d="M3575 4320 c-3 -5 1 -10 9 -10 9 0 16 5 16 10 0 6 -4 10 -9 10 -6 0
-13 -4 -16 -10z"/>
<path d="M1211 4315 c1 -19 18 -51 18 -35 0 8 -4 22 -9 30 -5 8 -9 11 -9 5z"/>
<path d="M3185 4310 c-3 -5 -1 -10 4 -10 6 0 11 5 11 10 0 6 -2 10 -4 10 -3 0
-8 -4 -11 -10z"/>
<path d="M1245 4295 c4 -11 8 -25 9 -32 3 -19 16 -28 16 -12 -1 8 -8 25 -16
39 -11 17 -13 19 -9 5z"/>
<path d="M3625 4299 c-4 -6 -5 -12 -2 -15 2 -3 7 2 10 11 7 17 1 20 -8 4z"/>
<path d="M3657 4293 c-4 -3 -7 -18 -7 -31 0 -32 13 -20 15 13 1 28 1 28 -8 18z"/>
<path d="M1110 4281 c0 -5 7 -14 15 -21 16 -14 18 -10 9 14 -6 17 -24 22 -24
7z"/>
<path d="M3166 4275 c-9 -26 -7 -32 5 -12 6 10 9 21 6 23 -2 3 -7 -2 -11 -11z"/>
<path d="M3505 4279 c-4 -6 -5 -12 -2 -15 2 -3 7 2 10 11 7 17 1 20 -8 4z"/>
<path d="M3471 4264 c0 -11 3 -14 6 -6 3 7 2 16 -1 19 -3 4 -6 -2 -5 -13z"/>
<path d="M3556 4265 c-3 -8 -1 -15 4 -15 6 0 10 7 10 15 0 8 -2 15 -4 15 -2 0
-6 -7 -10 -15z"/>
<path d="M1292 4253 c-1 -12 -5 -28 -8 -36 -3 -10 3 -20 18 -28 20 -10 21 -10
11 2 -6 8 -13 30 -16 49 -2 19 -5 25 -5 13z"/>
<path d="M1200 4251 c0 -6 4 -13 10 -16 6 -3 7 1 4 9 -7 18 -14 21 -14 7z"/>
<path d="M1341 4219 c-11 -18 -11 -23 1 -30 19 -13 25 -11 30 9 5 19 0 42 -10
42 -4 0 -13 -10 -21 -21z"/>
<path d="M3617 4233 c-4 -3 -7 -11 -7 -17 0 -6 5 -5 12 2 6 6 9 14 7 17 -3 3
-9 2 -12 -2z"/>
<path d="M3481 4214 c0 -11 3 -14 6 -6 3 7 2 16 -1 19 -3 4 -6 -2 -5 -13z"/>
<path d="M3649 4228 c-4 -10 -7 -59 -3 -55 7 7 15 57 9 57 -3 0 -6 -1 -6 -2z"/>
<path d="M866 4212 c-3 -5 1 -15 9 -22 16 -14 20 -3 6 19 -5 8 -11 9 -15 3z"/>
<path d="M1250 4211 c0 -6 4 -13 10 -16 6 -3 7 1 4 9 -7 18 -14 21 -14 7z"/>
<path d="M1160 4205 c0 -5 5 -17 10 -25 5 -8 10 -10 10 -5 0 6 -5 17 -10 25
-5 8 -10 11 -10 5z"/>
<path d="M3516 4194 c-4 -9 -4 -19 -1 -22 2 -3 7 3 11 12 4 9 4 19 1 22 -2 3
-7 -3 -11 -12z"/>
<path d="M3546 4194 c-10 -25 1 -29 14 -5 6 12 7 21 1 21 -5 0 -12 -7 -15 -16z"/>
<path d="M3676 4201 c-4 -7 -5 -15 -2 -18 9 -9 19 4 14 18 -4 11 -6 11 -12 0z"/>
<path d="M960 4191 c0 -5 5 -13 10 -16 6 -3 10 -2 10 4 0 5 -4 13 -10 16 -5 3
-10 2 -10 -4z"/>
<path d="M1230 4179 c0 -11 4 -17 10 -14 6 4 22 -1 37 -10 17 -12 24 -13 21
-4 -2 7 -19 21 -36 31 -31 17 -32 17 -32 -3z"/>
<path d="M3585 4190 c3 -5 8 -10 11 -10 2 0 4 5 4 10 0 6 -5 10 -11 10 -5 0
-7 -4 -4 -10z"/>
<path d="M856 4175 c4 -11 7 -28 8 -37 0 -10 4 -14 9 -9 5 5 2 21 -8 37 -9 16
-13 20 -9 9z"/>
<path d="M807 4162 c-22 -24 -22 -43 1 -35 20 8 32 23 32 41 0 17 -14 15 -33
-6z"/>
<path d="M896 4153 c2 -6 6 -27 9 -46 5 -25 13 -37 28 -41 20 -5 21 -4 5 8
-26 19 -22 24 14 22 36 -1 51 22 19 31 -12 3 -21 12 -21 19 0 8 -5 14 -11 14
-6 0 -9 -9 -6 -20 7 -28 -17 -26 -29 3 -6 12 -9 17 -8 10z"/>
<path d="M1310 4166 c0 -2 7 -9 15 -16 9 -7 15 -8 15 -2 0 5 -7 12 -15 16 -8
3 -15 4 -15 2z"/>
<path d="M3555 4160 c-3 -5 -1 -10 4 -10 6 0 11 5 11 10 0 6 -2 10 -4 10 -3 0
-8 -4 -11 -10z"/>
<path d="M1162 4144 c10 -10 20 -15 24 -12 3 4 -5 12 -18 18 -22 12 -22 12 -6
-6z"/>
<path d="M3647 4153 c-4 -3 -7 -11 -7 -17 0 -6 5 -5 12 2 6 6 9 14 7 17 -3 3
-9 2 -12 -2z"/>
<path d="M3819 4143 c-13 -16 -12 -17 4 -4 9 7 17 15 17 17 0 8 -8 3 -21 -13z"/>
<path d="M3516 4134 c-4 -9 -4 -19 -1 -22 2 -3 7 3 11 12 4 9 4 19 1 22 -2 3
-7 -3 -11 -12z"/>
<path d="M1130 4136 c0 -2 7 -9 15 -16 13 -11 14 -10 9 4 -5 14 -24 23 -24 12z"/>
<path d="M3574 4125 c-17 -13 -17 -14 -2 -15 9 0 20 5 23 11 11 17 0 20 -21 4z"/>
<path d="M3900 4129 c0 -5 5 -7 10 -4 6 3 10 8 10 11 0 2 -4 4 -10 4 -5 0 -10
-5 -10 -11z"/>
<path d="M3733 4116 c-13 -7 -19 -16 -14 -22 21 -22 22 -53 1 -72 -12 -11 -18
-25 -14 -35 6 -17 24 -14 24 4 0 6 -4 7 -10 4 -5 -3 -10 -2 -10 2 0 5 9 14 20
20 13 9 19 22 17 43 -1 16 -6 30 -10 30 -5 0 -6 4 -2 10 3 5 11 7 19 4 7 -3
13 2 13 11 0 17 -4 18 -34 1z"/>
<path d="M1340 4111 c0 -5 5 -13 10 -16 6 -3 10 -2 10 4 0 5 -4 13 -10 16 -5
3 -10 2 -10 -4z"/>
<path d="M3691 4104 c0 -11 3 -14 6 -6 3 7 2 16 -1 19 -3 4 -6 -2 -5 -13z"/>
<path d="M3783 4102 c0 -12 5 -22 9 -22 11 0 10 12 -2 30 -7 12 -9 10 -7 -8z"/>
<path d="M3827 4103 c-12 -21 -16 -63 -7 -63 11 0 12 3 15 43 2 27 0 33 -8 20z"/>
<path d="M821 4074 c0 -11 3 -14 6 -6 3 7 2 16 -1 19 -3 4 -6 -2 -5 -13z"/>
<path d="M850 4080 c0 -6 5 -10 11 -10 6 0 9 -7 5 -15 -3 -8 -1 -15 4 -15 16
0 11 37 -5 44 -8 3 -15 1 -15 -4z"/>
<path d="M1131 4060 c0 -8 4 -22 9 -30 12 -18 12 -2 0 25 -6 13 -9 15 -9 5z"/>
<path d="M815 4030 c3 -5 8 -10 11 -10 2 0 4 5 4 10 0 6 -5 10 -11 10 -5 0 -7
-4 -4 -10z"/>
<path d="M760 4026 c0 -2 8 -10 18 -17 15 -13 16 -12 3 4 -13 16 -21 21 -21
13z"/>
<path d="M1100 4020 c0 -12 28 -25 36 -17 3 3 -4 10 -15 17 -15 7 -21 7 -21 0z"/>
<path d="M3313 4015 c-3 -9 -3 -18 -1 -21 3 -3 8 4 11 16 6 23 -1 27 -10 5z"/>
<path d="M3784 3993 c-9 -21 -20 -42 -22 -47 -3 -5 0 -6 7 -2 13 8 44 77 37
83 -2 3 -12 -13 -22 -34z"/>
<path d="M3820 4013 c0 -16 16 -17 25 -3 5 8 11 7 21 -1 12 -9 13 -9 9 3 -7
19 -55 19 -55 1z"/>
<path d="M3340 3999 c-12 -22 -8 -35 8 -25 13 8 22 46 11 46 -4 0 -13 -9 -19
-21z"/>
<path d="M3745 4009 c-4 -6 -5 -12 -2 -15 2 -3 7 2 10 11 7 17 1 20 -8 4z"/>
<path d="M3735 3971 c-6 -11 9 -23 19 -14 9 9 7 23 -3 23 -6 0 -12 -4 -16 -9z"/>
<path d="M3686 3961 c-4 -7 -5 -15 -2 -18 9 -9 19 4 14 18 -4 11 -6 11 -12 0z"/>
<path d="M3795 3942 c-17 -12 -36 -52 -25 -52 5 0 16 14 25 30 16 32 16 34 0
22z"/>
<path d="M3601 3906 c-13 -33 -9 -43 8 -22 7 8 11 23 8 33 -3 14 -6 12 -16
-11z"/>
<path d="M3740 3915 c-8 -9 -8 -15 -2 -15 12 0 26 19 19 26 -2 2 -10 -2 -17
-11z"/>
<path d="M816 3905 c4 -8 8 -15 10 -15 2 0 4 7 4 15 0 8 -4 15 -10 15 -5 0 -7
-7 -4 -15z"/>
<path d="M862 3890 c0 -14 2 -19 5 -12 2 6 2 18 0 25 -3 6 -5 1 -5 -13z"/>
<path d="M3381 3896 c-16 -19 20 -51 37 -34 17 17 15 26 -7 37 -14 8 -22 7
-30 -3z"/>
<path d="M3561 3894 c0 -11 3 -14 6 -6 3 7 2 16 -1 19 -3 4 -6 -2 -5 -13z"/>
<path d="M3635 3899 c-4 -6 -5 -12 -2 -15 2 -3 7 2 10 11 7 17 1 20 -8 4z"/>
<path d="M3790 3885 c-7 -9 -11 -18 -8 -20 3 -3 11 1 18 10 7 9 11 18 8 20 -3
3 -11 -1 -18 -10z"/>
<path d="M686 3866 c3 -8 12 -17 20 -20 12 -4 12 -2 4 14 -12 23 -32 27 -24 6z"/>
<path d="M3651 3873 c-1 -6 -4 -20 -7 -30 -5 -17 -5 -17 6 0 6 10 9 23 6 30
-3 9 -5 9 -5 0z"/>
<path d="M830 3861 c0 -5 5 -13 10 -16 6 -3 10 -2 10 4 0 5 -4 13 -10 16 -5 3
-10 2 -10 -4z"/>
<path d="M3745 3859 c-4 -6 -5 -12 -2 -15 2 -3 7 2 10 11 7 17 1 20 -8 4z"/>
<path d="M740 3851 c0 -10 29 -36 34 -30 1 2 -6 12 -16 22 -10 9 -18 13 -18 8z"/>
<path d="M3617 3853 c-4 -3 -7 -13 -7 -22 1 -13 3 -13 11 2 11 19 8 33 -4 20z"/>
<path d="M3540 3834 c0 -8 5 -12 10 -9 6 3 10 10 10 16 0 5 -4 9 -10 9 -5 0
-10 -7 -10 -16z"/>
<path d="M640 3822 c6 -13 14 -21 18 -18 3 4 -2 14 -12 24 -18 16 -18 16 -6
-6z"/>
<path d="M670 3831 c0 -5 7 -14 15 -21 12 -10 15 -10 15 3 0 8 -7 17 -15 21
-8 3 -15 2 -15 -3z"/>
<path d="M3134 3779 c3 -44 1 -70 -7 -78 -9 -10 -7 -12 13 -9 22 3 25 8 24 41
-1 21 -6 48 -12 60 -6 12 -13 29 -16 37 -4 8 -4 -15 -2 -51z"/>
<path d="M3656 3824 c-10 -25 1 -29 14 -5 6 12 7 21 1 21 -5 0 -12 -7 -15 -16z"/>
<path d="M600 3826 c0 -2 8 -10 18 -17 15 -13 16 -12 3 4 -13 16 -21 21 -21
13z"/>
<path d="M720 3811 c0 -5 5 -13 10 -16 6 -3 10 -2 10 4 0 5 -4 13 -10 16 -5 3
-10 2 -10 -4z"/>
<path d="M3605 3793 c3 -8 5 -20 6 -26 0 -7 4 -3 9 8 12 29 12 32 -5 32 -10 0
-14 -6 -10 -14z"/>
<path d="M680 3780 c-22 -5 -23 -7 -7 -13 10 -4 26 -3 34 2 21 11 4 19 -27 11z"/>
<path d="M547 3764 c3 -7 9 -14 14 -14 14 0 10 17 -5 23 -10 4 -13 1 -9 -9z"/>
<path d="M2714 3758 l-19 -23 23 19 c21 18 27 26 19 26 -2 0 -12 -10 -23 -22z"/>
<path d="M3635 3769 c-4 -6 -5 -12 -2 -15 2 -3 7 2 10 11 7 17 1 20 -8 4z"/>
<path d="M670 3741 c0 -6 4 -13 10 -16 6 -3 7 1 4 9 -7 18 -14 21 -14 7z"/>
<path d="M720 3743 c0 -4 5 -15 10 -23 8 -13 10 -13 10 2 0 9 -4 20 -10 23 -5
3 -10 3 -10 -2z"/>
<path d="M2915 3739 c11 -7 24 -18 28 -26 4 -7 14 -13 22 -13 7 0 27 -11 43
-25 26 -22 31 -23 48 -9 18 14 18 15 -3 9 -17 -5 -31 2 -58 29 -20 20 -42 36
-50 36 -7 0 -22 3 -32 6 -15 5 -15 3 2 -7z"/>
<path d="M2859 3713 l-24 -28 28 24 c25 23 32 31 24 31 -2 0 -14 -12 -28 -27z"/>
<path d="M2869 3694 c-14 -14 -34 -27 -44 -28 -12 -2 -20 -13 -22 -31 -2 -16
-8 -36 -14 -46 -13 -25 -12 -29 11 -29 11 0 26 12 34 29 17 32 66 76 95 86 19
6 19 7 3 26 -22 25 -32 24 -63 -7z"/>
<path d="M3676 3695 c-11 -8 -28 -15 -38 -15 -9 0 -22 -9 -28 -20 -10 -19 -10
-19 31 -1 41 19 82 51 64 51 -6 0 -19 -7 -29 -15z"/>
<path d="M3176 3683 c-16 -8 -40 -13 -54 -10 -17 3 -35 -2 -51 -14 -25 -20
-61 -26 -61 -9 0 5 -9 14 -19 19 -27 15 -107 -31 -133 -76 -22 -36 -46 -53
-76 -53 -25 0 -55 -35 -79 -90 -13 -29 -41 -64 -77 -95 -72 -61 -99 -105 -35
-55 24 19 70 58 102 87 68 62 127 83 233 83 39 0 91 7 114 15 23 8 70 16 104
16 33 1 53 3 44 6 -10 2 -18 9 -18 14 0 6 -5 7 -10 4 -6 -4 -17 -2 -24 4 -10
8 -23 7 -49 -4 -20 -8 -51 -15 -69 -14 -27 0 -22 4 29 18 79 23 91 33 95 84 2
22 8 42 14 44 7 2 8 -14 3 -54 -9 -62 -5 -83 6 -34 3 16 13 35 21 42 14 11 44
61 44 72 0 13 -29 13 -54 0z m-333 -203 c-12 -5 -44 -13 -72 -18 -42 -8 -49
-7 -40 4 9 11 43 18 114 22 18 1 18 0 -2 -8z"/>
<path d="M550 3671 c0 -5 5 -13 10 -16 6 -3 10 -2 10 4 0 5 -4 13 -10 16 -5 3
-10 2 -10 -4z"/>
<path d="M702 3660 c0 -14 2 -19 5 -12 2 6 2 18 0 25 -3 6 -5 1 -5 -13z"/>
<path d="M780 3656 c0 -8 5 -18 10 -21 6 -3 10 1 10 9 0 8 -4 18 -10 21 -5 3
-10 -1 -10 -9z"/>
<path d="M540 3632 c0 -6 8 -18 18 -28 9 -10 17 -22 17 -28 0 -6 5 -11 12 -11
7 0 18 -6 25 -12 19 -20 30 -15 18 7 -6 10 -9 25 -8 32 2 7 -8 14 -22 16 -14
2 -33 11 -42 19 -10 9 -18 11 -18 5z"/>
<path d="M635 3620 c3 -5 8 -10 11 -10 2 0 4 5 4 10 0 6 -5 10 -11 10 -5 0 -7
-4 -4 -10z"/>
<path d="M816 3615 c4 -8 8 -15 10 -15 2 0 4 7 4 15 0 8 -4 15 -10 15 -5 0 -7
-7 -4 -15z"/>
<path d="M3190 3589 c-7 -11 -10 -23 -7 -25 2 -2 9 7 15 21 14 30 7 33 -8 4z"/>
<path d="M390 3586 c0 -7 7 -19 15 -26 12 -10 13 -15 4 -20 -8 -5 -8 -9 0 -14
18 -11 25 41 8 59 -19 19 -27 19 -27 1z"/>
<path d="M776 3585 c4 -8 8 -15 10 -15 2 0 4 7 4 15 0 8 -4 15 -10 15 -5 0 -7
-7 -4 -15z"/>
<path d="M847 3570 c3 -11 7 -20 9 -20 2 0 4 9 4 20 0 11 -4 20 -9 20 -5 0 -7
-9 -4 -20z"/>
<path d="M700 3565 c0 -8 4 -15 10 -15 5 0 7 7 4 15 -4 8 -8 15 -10 15 -2 0
-4 -7 -4 -15z"/>
<path d="M355 3550 c-9 -15 -1 -23 21 -18 15 3 16 4 1 16 -11 9 -17 10 -22 2z"/>
<path d="M440 3530 c0 -5 5 -10 11 -10 5 0 7 5 4 10 -3 6 -8 10 -11 10 -2 0
-4 -4 -4 -10z"/>
<path d="M525 3530 c-3 -5 -1 -10 4 -10 6 0 11 5 11 10 0 6 -2 10 -4 10 -3 0
-8 -4 -11 -10z"/>
<path d="M564 3520 c0 -11 4 -20 9 -20 4 0 6 -4 2 -9 -3 -5 -1 -12 5 -16 11
-7 14 24 4 49 -9 22 -20 20 -20 -4z"/>
<path d="M688 3533 c-38 -4 -50 -16 -25 -26 8 -3 20 -1 28 4 22 14 33 11 19
-6 -10 -12 -10 -15 1 -15 16 0 41 35 32 44 -4 3 -9 5 -12 4 -3 -1 -23 -3 -43
-5z"/>
<path d="M3218 3513 c7 -3 16 -2 19 1 4 3 -2 6 -13 5 -11 0 -14 -3 -6 -6z"/>
<path d="M750 3491 c0 -6 4 -13 10 -16 6 -3 7 1 4 9 -7 18 -14 21 -14 7z"/>
<path d="M428 3483 c7 -3 16 -2 19 1 4 3 -2 6 -13 5 -11 0 -14 -3 -6 -6z"/>
<path d="M634 3483 c4 -4 13 -8 19 -8 7 0 12 -4 12 -10 0 -5 -12 -9 -27 -9
-19 1 -28 -3 -28 -13 0 -11 7 -14 26 -9 14 4 23 3 20 -2 -3 -5 8 -6 24 -4 28
4 28 5 14 26 -8 13 -11 26 -7 29 3 4 -9 7 -27 7 -18 0 -30 -3 -26 -7z"/>
<path d="M860 3460 c-8 -5 -1 -10 19 -15 40 -9 47 -3 16 11 -13 6 -29 8 -35 4z"/>
<path d="M580 3450 c0 -5 5 -10 11 -10 5 0 7 5 4 10 -3 6 -8 10 -11 10 -2 0
-4 -4 -4 -10z"/>
<path d="M585 3371 c7 -24 -4 -53 -18 -44 -7 4 -8 0 -4 -11 4 -10 7 -20 7 -22
0 -3 6 -2 13 3 6 4 16 8 22 8 8 0 10 17 6 70 -1 8 -8 15 -17 15 -10 0 -13 -6
-9 -19z"/>
<path d="M550 3366 c0 -2 7 -9 15 -16 13 -11 14 -10 9 4 -5 14 -24 23 -24 12z"/>
<path d="M1381 3365 c1 -19 18 -51 18 -35 0 8 -4 22 -9 30 -5 8 -9 11 -9 5z"/>
<path d="M675 3231 c-3 -5 -1 -12 5 -16 5 -3 10 1 10 9 0 18 -6 21 -15 7z"/>
<path d="M2380 2660 c0 -36 31 -98 75 -150 21 -25 44 -60 52 -79 26 -62 89
-136 281 -330 172 -173 193 -191 216 -185 14 3 26 9 25 13 0 3 -46 47 -102 96
-127 113 -289 274 -345 343 -24 29 -64 92 -89 140 -25 48 -54 96 -64 108 -25
27 -24 42 1 19 11 -10 41 -57 67 -104 48 -88 147 -226 212 -295 20 -21 102
-91 182 -156 l145 -117 22 31 c12 18 22 40 22 49 0 10 7 20 15 23 27 11 16 21
-61 54 -109 48 -184 109 -411 334 -112 111 -207 201 -213 201 -6 0 -15 7 -20
15 -8 12 -10 10 -10 -10z"/>
<path d="M2071 2569 c-29 -66 -21 -74 9 -9 13 27 21 52 18 55 -3 3 -15 -17
-27 -46z"/>
<path d="M2111 2574 c0 -11 3 -14 6 -6 3 7 2 16 -1 19 -3 4 -6 -2 -5 -13z"/>
<path d="M2465 2450 c47 -85 74 -111 34 -35 -17 33 -39 69 -50 80 -13 12 -6
-5 16 -45z"/>
<path d="M2715 2380 c104 -106 222 -195 314 -237 41 -19 86 -42 100 -52 14
-10 38 -20 54 -23 21 -4 27 -1 27 13 0 28 -12 52 -20 40 -4 -7 -18 9 -33 37
-28 51 -74 87 -190 149 -33 17 -63 36 -66 41 -11 16 -65 39 -121 51 -30 7 -75
23 -100 37 -44 24 -43 23 35 -56z"/>
<path d="M2331 2423 c-1 -18 48 -224 73 -308 4 -11 -3 -2 -14 20 l-20 40 6
-40 c10 -63 40 -142 72 -190 16 -25 35 -66 41 -91 9 -35 15 -44 24 -35 6 6 19
11 29 11 23 0 22 2 -3 53 -25 51 -76 204 -91 270 -5 27 -30 92 -55 145 -25 54
-49 108 -53 122 -8 23 -8 24 -9 3z"/>
<path d="M2991 2312 c26 -15 65 -39 88 -55 22 -15 66 -41 97 -57 54 -30 55
-30 49 -8 -10 30 -5 27 -77 54 -35 12 -57 23 -51 23 20 1 146 -41 168 -56 11
-7 30 -13 43 -13 15 0 29 -10 40 -30 19 -33 25 -36 40 -17 21 24 0 55 -68 102
-65 45 -71 47 -166 56 -55 5 -117 13 -139 19 -66 16 -73 11 -24 -18z"/>
<path d="M3364 2241 c16 -11 34 -31 40 -46 10 -24 12 -25 34 -10 12 9 22 20
22 24 0 9 -59 36 -100 46 -24 6 -24 6 4 -14z"/>
<path d="M2462 2169 c10 -41 27 -100 38 -132 11 -31 20 -63 20 -70 0 -6 12
-40 27 -74 19 -42 34 -63 46 -63 15 0 16 6 11 43 -15 109 -25 150 -42 175 -11
15 -33 54 -51 87 -17 33 -40 71 -50 84 -17 23 -17 21 1 -50z"/>
<path d="M3230 2213 c0 -5 11 -25 25 -45 32 -48 32 -61 0 -23 l-26 30 7 -35
c11 -59 24 -65 56 -25 11 14 26 25 34 25 25 0 15 30 -13 41 -16 6 -40 18 -55
26 -16 8 -28 10 -28 6z"/>
<path d="M3482 2198 c5 -13 88 -40 88 -28 0 9 -62 40 -80 40 -6 0 -10 -5 -8
-12z"/>
<path d="M3200 2148 c11 -18 20 -43 20 -55 0 -13 5 -23 10 -23 13 0 13 4 -2
52 -6 22 -20 44 -30 49 -17 9 -17 7 2 -23z"/>
<path d="M1920 2138 c-11 -18 -27 -52 -36 -75 -10 -26 -21 -40 -28 -36 -6 3
-8 3 -4 -2 15 -16 -74 -141 -92 -130 -5 3 -22 -6 -38 -20 -37 -31 -51 -33 -26
-2 l19 22 -22 -19 c-13 -10 -21 -22 -18 -26 6 -10 -77 -88 -180 -169 -87 -69
-114 -84 -99 -58 4 7 3 9 -2 4 -5 -5 -9 -13 -9 -18 0 -5 -13 -20 -30 -34 l-30
-24 38 3 c45 4 105 52 281 224 72 71 103 96 77 64 -24 -29 -42 -55 -39 -57 6
-6 75 62 124 121 22 27 62 94 89 149 26 55 50 103 52 108 2 4 2 7 -2 7 -3 0
-14 -15 -25 -32z"/>
<path d="M3170 2152 c6 -13 14 -21 18 -18 3 4 -2 14 -12 24 -18 16 -18 16 -6
-6z"/>
<path d="M3692 2055 c-8 -16 -8 -25 -1 -25 5 0 -1 -15 -15 -33 -46 -60 -27
-60 23 0 27 32 46 63 44 70 -9 22 -39 14 -51 -12z m38 11 c0 -2 -8 -10 -17
-17 -16 -13 -17 -12 -4 4 13 16 21 21 21 13z"/>
<path d="M3108 2057 c-9 -6 -21 -29 -28 -49 -6 -21 -16 -38 -21 -38 -18 0 -8
-40 26 -100 22 -39 32 -67 27 -76 -13 -23 -46 8 -61 55 -13 46 -42 69 -60 47
-7 -8 -22 -11 -38 -8 -23 4 -25 2 -18 -14 4 -10 20 -51 35 -90 33 -87 111
-219 130 -219 8 0 18 -16 23 -35 9 -35 33 -70 49 -70 4 0 40 21 78 47 49 32
69 51 66 62 -28 99 -29 101 -46 96 -11 -4 -20 1 -25 12 -35 87 -54 143 -46
139 5 -4 22 -38 37 -76 33 -85 53 -79 23 6 -32 90 -42 142 -42 220 1 67 -1 73
-24 83 -39 18 -44 14 -38 -31 l5 -43 -15 44 c-18 54 -18 54 -37 38z m120 -399
c14 -14 16 -28 3 -28 -5 0 -15 14 -24 31 -11 24 -22 32 -46 34 -17 2 -34 -1
-37 -6 -3 -5 -13 -9 -23 -9 -28 0 -43 -21 -27 -39 17 -20 31 -75 16 -66 -5 3
-10 13 -10 21 0 8 -7 25 -15 38 -14 21 -37 117 -30 124 2 2 9 -14 15 -35 11
-35 15 -39 40 -35 27 4 27 5 14 30 -16 30 -18 56 -5 48 4 -3 12 -20 16 -38 5
-22 9 -27 12 -16 2 9 -1 26 -6 37 -15 27 -4 56 16 40 8 -7 -2 23 -22 66 -58
127 -38 100 34 -48 37 -75 73 -143 79 -149z m-198 158 c0 -12 -14 5 -31 39 -8
16 -6 15 10 -4 12 -13 21 -28 21 -35z"/>
<path d="M3134 1746 c6 -20 15 -36 19 -36 11 0 -2 41 -18 58 -10 11 -10 7 -1
-22z"/>
<path d="M3228 2055 c-3 -3 -1 -29 3 -58 4 -28 10 -79 12 -112 3 -33 7 -67 10
-75 3 -8 21 -64 41 -125 19 -60 39 -111 45 -113 5 -2 -6 54 -25 125 -30 110
-63 288 -64 346 0 16 -11 23 -22 12z"/>
<path d="M3729 2013 c-61 -69 -63 -75 -6 -34 31 24 57 47 57 52 0 18 -27 8
-51 -18z"/>
<path d="M2740 2010 c6 -11 13 -20 16 -20 2 0 0 9 -6 20 -6 11 -13 20 -16 20
-2 0 0 -9 6 -20z"/>
<path d="M2332 1920 c0 -59 13 -140 18 -115 4 21 -2 112 -10 145 -7 30 -8 26
-8 -30z"/>
<path d="M2401 1973 c-1 -7 8 -36 19 -65 22 -59 26 -100 5 -53 l-14 30 -1 -42
c0 -40 2 -43 26 -43 21 0 25 4 20 18 -6 16 -5 16 7 0 21 -27 27 -11 12 32 -19
54 -44 98 -45 80 -1 -8 -8 1 -15 20 -7 19 -14 29 -14 23z"/>
<path d="M3222 1935 c0 -16 2 -22 5 -12 2 9 2 23 0 30 -3 6 -5 -1 -5 -18z"/>
<path d="M3032 1913 c2 -5 15 -30 28 -58 13 -27 25 -44 27 -37 6 16 -36 102
-49 102 -5 0 -8 -3 -6 -7z"/>
<path d="M1620 1816 c-6 -8 -44 -35 -85 -60 -40 -26 -76 -53 -79 -62 -3 -8
-10 -13 -14 -10 -5 3 -29 -10 -55 -28 -26 -18 -74 -41 -108 -51 -44 -12 -58
-19 -48 -26 27 -17 59 -9 109 26 28 20 55 33 61 30 5 -4 46 23 92 58 107 84
165 137 151 137 -6 0 -17 -6 -24 -14z m-180 -139 c0 -2 -10 -12 -22 -23 l-23
-19 19 23 c18 21 26 27 26 19z"/>
<path d="M2210 1740 c-4 -8 -6 -28 -3 -43 4 -18 0 -34 -12 -47 -18 -20 -45
-27 -45 -12 0 4 -14 13 -30 21 -23 9 -34 10 -44 2 -7 -6 -33 -12 -57 -12 -24
-1 -55 -9 -69 -17 -14 -9 -32 -17 -40 -19 -8 -1 -19 -8 -25 -16 -7 -9 -19 -11
-37 -6 -28 7 -28 7 -13 -21 8 -16 15 -39 15 -51 0 -18 2 -20 16 -8 10 8 13 21
9 36 -3 13 -1 23 5 23 5 0 10 -9 10 -20 0 -19 1 -19 43 3 36 19 55 22 137 19
91 -2 95 -1 125 27 16 15 51 34 78 42 51 14 53 20 35 77 -11 35 -14 37 -51 37
-25 0 -42 -5 -47 -15z"/>
<path d="M965 1726 c-59 -13 -142 -42 -158 -56 -5 -4 4 -7 20 -7 15 0 45 -5
67 -11 21 -6 44 -8 50 -6 10 4 93 96 84 93 -2 -1 -30 -7 -63 -13z"/>
<path d="M997 1684 c-32 -31 -56 -59 -53 -61 3 -3 31 22 63 56 74 76 67 79
-10 5z"/>
<path d="M3845 1652 c-143 -72 -192 -92 -309 -122 l-140 -36 -61 -175 c-34
-96 -69 -192 -79 -214 l-17 -39 49 -46 c26 -25 39 -38 28 -29 -12 9 -35 25
-52 37 l-31 21 -47 -114 c-25 -63 -46 -120 -46 -127 0 -13 369 -388 381 -388
3 0 28 28 55 63 27 34 97 122 157 194 102 124 117 139 255 236 l147 103 67
194 c37 107 68 204 68 216 0 29 -56 83 -80 77 -12 -3 -23 3 -32 16 -7 12 -21
21 -31 21 -11 0 -21 9 -24 20 -8 29 -40 25 -87 -13 -23 -18 -73 -52 -113 -75
-40 -23 -75 -47 -78 -52 -3 -5 -20 -19 -38 -31 l-32 -23 25 28 c24 27 152 116
167 116 4 0 25 13 45 29 34 25 36 30 24 47 -20 28 -22 54 -7 97 7 20 11 41 9
46 -2 5 -79 -30 -173 -77z m315 -175 c0 -2 -12 -14 -27 -28 l-28 -24 24 28
c23 25 31 32 31 24z m-60 -52 c0 -10 -154 -105 -169 -105 -9 0 7 13 34 28 28
15 68 40 90 54 44 30 45 30 45 23z m-382 -92 c-20 -21 -46 -58 -58 -81 -12
-24 -24 -42 -26 -39 -13 12 93 157 115 157 3 0 -11 -17 -31 -37z m86 -54 c-10
-12 -41 -33 -69 -48 -69 -36 -75 -37 -36 -7 19 14 39 26 44 26 5 0 22 11 39
25 36 30 48 33 22 4z m-164 -79 c11 -7 -4 -10 -50 -10 -36 0 -96 -2 -135 -5
-38 -3 -65 -3 -60 0 6 3 57 9 115 14 58 4 107 9 110 9 3 1 12 -3 20 -8z m-273
-26 c-3 -3 -12 -4 -19 -1 -8 3 -5 6 6 6 11 1 17 -2 13 -5z m18 -315 c9 -17 51
-67 93 -112 74 -79 69 -82 -11 -7 -40 36 -89 101 -100 133 -10 28 1 20 18 -14z"/>
<path d="M517 1694 c-3 -3 -29 -11 -57 -17 l-51 -12 192 -272 c171 -245 218
-301 219 -260 0 6 -21 87 -46 179 l-47 167 -44 -25 c-25 -13 -42 -20 -38 -14
3 6 24 19 46 31 29 14 38 24 31 32 -5 7 -12 26 -15 42 -6 28 -5 28 9 -5 22
-51 104 -86 90 -37 -4 12 -10 49 -13 82 -4 51 -9 62 -29 72 l-23 10 4 -71 c5
-80 -2 -71 -13 19 -5 43 -11 60 -22 60 -11 0 -15 -11 -14 -45 l2 -45 -10 36
c-8 28 -19 39 -52 54 -42 18 -109 29 -119 19z"/>
<path d="M380 1667 c0 -12 342 -488 347 -484 4 5 -308 451 -333 477 -8 8 -14
11 -14 7z"/>
<path d="M801 1603 c0 -54 19 -118 34 -117 6 0 29 4 53 9 41 7 42 8 42 49 0
69 -7 81 -56 94 -71 19 -74 18 -73 -35z"/>
<path d="M2279 1632 c-9 -4 -35 -30 -57 -58 -48 -61 -118 -99 -163 -90 -19 4
-29 1 -29 -7 0 -6 19 -90 42 -185 39 -161 44 -173 63 -167 66 21 65 21 65 -32
0 -69 17 -82 98 -75 l63 4 -6 42 c-3 22 -1 66 6 96 6 30 12 89 12 132 1 42 5
79 9 83 3 4 2 21 -3 38 -5 18 -9 45 -9 62 0 16 -7 44 -16 60 -9 17 -20 46 -23
65 -6 35 -22 45 -52 32z"/>
<path d="M1595 1600 c-16 -31 -20 -60 -7 -60 4 0 12 20 18 45 6 25 9 45 7 45
-1 0 -9 -13 -18 -30z"/>
<path d="M2194 1589 c-29 -31 -30 -31 -104 -26 -92 7 -155 -9 -155 -38 0 -18
9 -21 75 -26 50 -4 85 -2 106 6 35 14 100 69 115 96 15 29 -4 23 -37 -12z"/>
<path d="M940 1559 c0 -48 1 -51 23 -45 12 3 32 6 45 6 19 0 22 5 22 45 0 41
-2 45 -24 45 -13 0 -27 -6 -29 -12 -4 -10 -6 -10 -6 0 -1 6 -8 12 -16 12 -11
0 -15 -12 -15 -51z"/>
<path d="M1037 1538 c-7 -81 40 -332 60 -320 6 4 22 78 35 165 12 86 26 157
31 157 4 0 6 -4 3 -9 -7 -10 19 -23 28 -14 3 4 6 17 6 29 0 35 -44 59 -106 59
l-52 0 -5 -67z m130 20 c-3 -8 -6 -5 -6 6 -1 11 2 17 5 13 3 -3 4 -12 1 -19z
m-44 -35 c-13 -2 -33 -2 -45 0 -13 2 -3 4 22 4 25 0 35 -2 23 -4z"/>
<path d="M1790 1554 c0 -25 5 -54 10 -64 7 -14 2 -77 -20 -222 -19 -133 -26
-206 -20 -212 6 -6 10 -23 10 -38 0 -34 22 -36 93 -12 40 13 46 19 42 37 -3
12 -16 108 -30 212 -30 224 -42 292 -57 323 -18 35 -28 26 -28 -24z"/>
<path d="M1735 1564 c-8 -9 -22 -13 -31 -10 -12 5 -14 1 -9 -17 4 -12 9 -29
11 -38 2 -9 -11 -80 -29 -158 -19 -77 -33 -141 -31 -141 9 0 118 229 125 260
l7 35 1 -34 c1 -25 -20 -74 -74 -177 -41 -78 -75 -146 -75 -151 0 -9 100 -66
106 -61 2 2 15 83 30 178 18 123 24 194 20 237 -10 95 -19 109 -51 77z m35
-48 c0 -12 -5 -7 -19 24 -11 24 -11 24 3 6 9 -11 16 -24 16 -30z"/>
<path d="M1210 1528 c0 -19 9 -42 23 -57 l22 -26 -23 19 c-12 11 -24 17 -26
15 -4 -4 -46 -205 -46 -219 0 -4 23 -10 50 -14 28 -4 57 -9 66 -13 13 -5 15
14 12 158 l-3 164 -37 2 c-37 3 -38 2 -38 -29z"/>
<path d="M1655 1540 c-11 -4 -23 -6 -27 -3 -13 7 -9 -22 8 -62 13 -32 14 -53
5 -143 -6 -58 -10 -107 -8 -108 2 -2 16 53 31 121 23 98 27 133 20 163 -8 34
-12 38 -29 32z"/>
<path d="M1301 1384 c-1 -119 2 -164 12 -172 9 -8 11 -1 9 31 -2 23 -7 101
-11 172 l-8 130 -2 -161z"/>
<path d="M1324 1413 c9 -172 15 -221 31 -227 15 -5 21 26 31 172 6 86 8 92 28
91 14 -1 16 -3 5 -6 -23 -6 -42 -260 -20 -268 8 -3 16 -4 18 -1 2 2 8 48 13
102 6 55 12 121 15 148 4 39 2 51 -12 62 -17 13 -17 14 1 7 13 -4 17 -3 12 5
-4 7 -4 18 1 25 5 7 10 -5 14 -33 l6 -45 1 48 c2 46 1 47 -28 47 -28 0 -30 -3
-30 -34 0 -19 -4 -38 -10 -41 -6 -4 -10 10 -10 34 0 40 -1 41 -36 41 l-36 0 6
-127z m53 21 c-3 -3 -12 -4 -19 -1 -8 3 -5 6 6 6 11 1 17 -2 13 -5z"/>
<path d="M1577 1523 c-4 -3 -7 -23 -7 -43 0 -30 -60 -249 -85 -312 -7 -18 3
-23 76 -33 57 -7 55 -12 65 166 9 162 -13 259 -49 222z"/>
<path d="M1890 1515 c-10 -13 -9 -15 9 -15 11 0 21 4 21 9 0 18 -18 21 -30 6z"/>
<path d="M1480 1480 c0 -20 6 -42 13 -49 10 -11 9 -12 -2 -6 -12 7 -13 0 -8
-40 4 -26 7 -66 7 -88 0 -25 4 -37 9 -32 10 11 40 109 51 168 7 35 6 37 -19
38 l-26 1 24 7 c27 7 40 30 19 32 -68 7 -68 7 -68 -31z"/>
<path d="M973 1503 c-13 -2 -23 -10 -23 -16 1 -27 58 -329 64 -335 4 -3 19 6
34 21 l27 27 -28 133 c-15 72 -27 142 -27 155 0 22 -4 23 -47 15z m41 -130 c3
-40 4 -73 2 -73 -2 0 -9 33 -16 73 -6 39 -13 83 -15 97 l-5 25 14 -25 c7 -14
16 -58 20 -97z m13 -120 c-3 -10 -5 -4 -5 12 0 17 2 24 5 18 2 -7 2 -21 0 -30z"/>
<path d="M1160 1488 c0 -7 -8 -65 -18 -130 -13 -82 -15 -115 -7 -112 13 5 58
231 49 245 -8 13 -24 11 -24 -3z"/>
<path d="M858 1477 c-22 -10 -25 -16 -16 -32 9 -18 8 -18 -9 1 -10 12 -35 25
-56 28 -44 8 -46 31 17 -189 l43 -150 77 -3 76 -3 0 28 c0 32 -49 313 -56 325
-7 11 -44 9 -76 -5z m40 -202 c0 -29 -1 -29 -7 5 -4 19 -13 45 -19 57 -7 12
-12 30 -11 40 0 10 9 -2 19 -27 10 -25 19 -58 18 -75z"/>
<path d="M1880 1478 c0 -16 138 -427 139 -413 0 6 -21 102 -47 215 -44 186
-50 205 -70 208 -13 2 -22 -2 -22 -10z"/>
<path d="M1940 1479 c0 -13 91 -403 95 -407 5 -6 65 31 65 40 0 12 -47 211
-71 299 l-21 77 -34 -1 c-19 -1 -34 -4 -34 -8z"/>
<path d="M1855 1468 c3 -7 18 -107 34 -221 16 -115 31 -210 34 -213 10 -10 79
26 74 38 -2 7 -33 102 -68 210 -35 109 -67 198 -71 198 -4 0 -5 -6 -3 -12z"/>
<path d="M1457 1410 c-6 -32 -22 -228 -19 -240 0 -3 7 -6 15 -8 30 -6 37 47
24 168 -10 90 -14 107 -20 80z"/>
<path d="M1160 1208 c1 -71 69 -196 161 -293 52 -55 69 -89 69 -138 0 -18 15
-58 35 -92 53 -89 98 -185 92 -192 -4 -3 -17 20 -31 51 -14 31 -43 81 -65 112
-22 31 -43 73 -46 93 -3 20 -8 51 -11 69 -3 20 -21 51 -43 75 -21 23 -54 64
-74 91 -20 27 -37 46 -37 42 0 -4 30 -62 66 -129 76 -142 82 -163 59 -207 -19
-37 -14 -69 17 -113 15 -20 23 -53 29 -106 12 -130 15 -134 133 -180 284 -111
557 -161 883 -161 277 0 516 38 763 120 113 38 306 119 341 144 16 11 -3 33
-179 209 -152 151 -200 194 -212 187 -12 -8 -8 -22 25 -90 32 -66 48 -86 85
-110 59 -38 100 -81 145 -155 39 -65 12 -37 -45 45 -19 27 -61 69 -94 91 -61
44 -109 108 -128 172 -6 20 -13 37 -14 37 -2 0 -28 -11 -58 -24 l-55 -24 14
-49 c7 -26 16 -57 20 -68 6 -19 6 -19 -9 -2 -8 11 -20 41 -27 67 l-12 48 -56
-24 c-30 -14 -56 -26 -57 -27 -3 -3 16 -86 26 -112 6 -16 10 -11 23 30 11 36
16 43 16 24 1 -15 -8 -55 -19 -89 -15 -47 -19 -80 -15 -134 4 -72 2 -73 -11
-1 l-7 40 -13 -50 c-12 -44 -13 -45 -8 -10 3 22 12 68 20 102 10 41 12 68 6
80 -5 10 -12 34 -16 53 -12 64 -14 64 -117 21 -93 -38 -94 -39 -97 -75 -2 -20
4 -61 12 -90 9 -30 15 -71 15 -93 l-2 -38 -7 40 c-4 22 -15 66 -24 98 -10 33
-16 70 -13 83 2 13 2 24 0 24 -3 0 -60 -23 -129 -52 -141 -59 -138 -54 -78
-144 19 -28 39 -73 44 -100 16 -76 23 -140 15 -132 -4 4 -13 46 -20 93 -11 73
-18 93 -49 132 -20 26 -39 57 -42 70 -4 13 -7 23 -8 23 -2 0 -43 -18 -92 -39
l-89 -39 2 -38 2 -39 -11 33 c-13 37 -13 37 -63 16 -20 -8 -39 -14 -40 -12 -2
2 -52 129 -110 283 -123 321 -127 331 -155 338 -17 4 -20 0 -21 -31 0 -21 -4
-55 -9 -77 -6 -28 -7 -9 -5 66 l4 106 -62 38 c-48 29 -78 39 -135 46 -40 4
-76 11 -81 14 -21 12 -14 -34 16 -125 35 -102 41 -130 18 -90 -26 46 -67 179
-60 199 7 23 -11 35 -70 45 -22 4 -57 18 -78 32 -20 14 -52 27 -70 30 -17 3
-42 7 -54 10 -20 4 -23 0 -23 -28z m449 -519 c1 -8 6 -20 11 -25 6 -6 15 -33
19 -60 8 -47 42 -177 56 -219 4 -12 -2 -7 -14 10 -11 17 -21 37 -21 45 0 8 -9
42 -19 74 -25 82 -34 59 -41 -109 l-5 -140 -7 110 c-5 65 -4 126 2 150 14 58
12 135 -5 191 -8 27 -14 54 -14 59 1 14 37 -67 38 -86z m240 -66 c11 -21 -1
-170 -19 -243 -10 -37 -4 122 6 190 4 28 -1 45 -30 90 -20 30 -36 58 -36 63 0
10 62 -70 79 -100z m904 -203 c-3 -85 -10 -166 -14 -180 -5 -14 -6 41 -3 125
3 83 5 170 5 195 -1 33 2 41 9 30 6 -9 7 -74 3 -170z m273 33 c-5 -57 -3 -91
9 -128 23 -78 17 -87 -11 -15 -18 46 -24 75 -19 100 3 19 8 54 11 78 10 72 17
46 10 -35z m-76 -71 c0 -16 13 -46 30 -68 40 -53 38 -66 -4 -18 -24 28 -36 53
-40 86 -5 33 -14 53 -31 66 -14 11 -25 24 -25 28 0 5 16 -8 35 -28 23 -25 35
-48 35 -66z m-1155 -9 c-7 -57 -31 -130 -40 -122 -2 3 2 27 10 54 7 28 16 67
20 88 10 59 17 43 10 -20z m-77 -118 c0 -26 -1 -25 -9 10 -4 22 -8 54 -7 70 0
26 1 25 9 -10 4 -22 8 -53 7 -70z m619 -17 c-2 -13 -4 -3 -4 22 0 25 2 35 4
23 2 -13 2 -33 0 -45z m-475 -23 c9 -20 9 -20 -6 -1 -9 11 -16 27 -15 35 0 14
1 14 6 1 3 -8 10 -24 15 -35z m975 -17 c-3 -7 -5 -2 -5 12 0 14 2 19 5 13 2
-7 2 -19 0 -25z"/>
<path d="M1112 1214 c-17 -15 -20 -25 -15 -44 7 -25 7 -25 13 5 3 17 6 -17 7
-74 2 -138 -12 -176 -19 -50 -3 53 -9 103 -14 112 -8 14 -13 12 -41 -11 l-32
-27 11 -105 c7 -58 12 -131 11 -163 -2 -48 3 -65 27 -104 28 -44 30 -53 28
-137 l-2 -91 -5 90 c-5 77 -10 97 -36 137 -49 78 -63 31 -21 -71 14 -32 28
-80 32 -108 l6 -50 92 -56 c102 -63 105 -62 112 22 6 70 22 139 44 189 11 24
20 51 20 60 0 8 -29 71 -65 138 -61 116 -104 229 -122 318 l-8 38 -23 -18z
m25 -136 c-3 -8 -6 -5 -6 6 -1 11 2 17 5 13 3 -3 4 -12 1 -19z m41 -225 c-4
-53 -54 -180 -66 -169 -2 3 8 29 23 59 14 30 29 80 32 111 8 74 17 73 11 -1z"/>
<path d="M838 1109 c-17 -11 10 -67 57 -118 l40 -44 0 -102 c0 -101 1 -104 42
-186 50 -98 52 -117 2 -24 -18 35 -35 62 -37 61 -7 -7 58 -136 69 -136 6 0 18
-8 26 -17 25 -31 6 61 -29 140 l-30 70 22 54 c21 51 22 59 11 151 -6 53 -12
111 -14 127 l-2 30 -73 0 c-40 0 -78 -3 -84 -6z"/>
<path d="M846 944 c-7 -65 -6 -68 23 -98 16 -17 35 -50 42 -74 7 -23 14 -40
17 -38 2 3 -1 19 -7 37 -8 24 -8 48 1 96 l12 64 -41 40 -40 41 -7 -68z"/>
<path d="M2946 772 c-4 -13 -5 -26 -2 -29 10 -11 18 4 14 29 l-4 23 -8 -23z"/>
<path d="M1291 543 c-7 -43 -16 -92 -20 -109 -8 -30 -7 -32 55 -62 35 -18 64
-30 64 -28 0 3 -5 17 -11 33 -6 15 -13 57 -15 92 -3 49 -10 74 -32 108 l-29
44 -12 -78z"/>
</g>
</svg>
